<?xml version="1.0" standalone="no"?>
 <!DOCTYPE svg PUBLIC "-//W3C//DTD SVG 1.1//EN" 
 "http://www.w3.org/Graphics/SVG/1.1/DTD/svg11.dtd"> 
<svg
  xmlns:svg="http://www.w3.org/2000/svg"
  xmlns="http://www.w3.org/2000/svg"
  xmlns:xlink="http://www.w3.org/1999/xlink"
  version="1.1"
  width="29.700220cm" height="21.000720cm" viewBox="0 0 116930 82680">
<title>SVG Picture created as example-placement.svg date 2022/11/19 00:16:05 </title>
  <desc>Picture generated by Eeschema-SVG </desc>
<g style="fill:#000000; fill-opacity:1.000000;stroke:#000000; stroke-opacity:1.000000;
stroke-linecap:round; stroke-linejoin:round;"
 transform="translate(0 0) scale(1 1)">
</g>
<g style="fill:#000000; fill-opacity:0.0; 
stroke:#000000; stroke-width:60.000000; stroke-opacity:1; 
stroke-linecap:round; stroke-linejoin:round;">
<g >
<path style="fill:#000000; fill-opacity:0.0; 
stroke:#000000; stroke-width:60.000000; stroke-opacity:1; 
stroke-linecap:round; stroke-linejoin:round;fill:none"
d="M 21500.000000,42000.000000
21340.000000,42000.000000
" /> 
</g>
<g style="fill:#000000; fill-opacity:1.0; 
stroke:#000000; stroke-width:60.000000; stroke-opacity:1; 
stroke-linecap:round; stroke-linejoin:round;">
<rect x="21000.000000" y="41950.000000" width="340.000000" height="100.000000" rx="0.000000" />
</g>
<g style="fill:#000000; fill-opacity:0.0; 
stroke:#000000; stroke-width:60.000000; stroke-opacity:1; 
stroke-linecap:round; stroke-linejoin:round;">
<path d="M21500 42000
L23000 42000
" />
<text x="22250.000000" y="41900.000000"
textLength="606.181102" font-size="666.653543" lengthAdjust="spacingAndGlyphs"
text-anchor="middle" opacity="0">1</text>
<g class="stroked-text"><desc>1</desc>
<path d="M22392 41876
L22107 41876
" />
<path d="M22250 41876
L22250 41376
L22202 41447
L22154 41495
L22107 41519
" />
</g><text x="21250.000000" y="40763.346457"
textLength="1893.346457" font-size="666.653543" lengthAdjust="spacingAndGlyphs"
text-anchor="middle" opacity="0">TP12</text>
<g class="stroked-text"><desc>TP12</desc>
<path d="M20380 40239
L20666 40239
" />
<path d="M20523 40739
L20523 40239
" />
<path d="M20833 40739
L20833 40239
L21023 40239
L21071 40263
L21095 40287
L21119 40334
L21119 40406
L21095 40453
L21071 40477
L21023 40501
L20833 40501
" />
<path d="M21595 40739
L21309 40739
" />
<path d="M21452 40739
L21452 40239
L21404 40310
L21357 40358
L21309 40382
" />
<path d="M21785 40287
L21809 40263
L21857 40239
L21976 40239
L22023 40263
L22047 40287
L22071 40334
L22071 40382
L22047 40453
L21761 40739
L22071 40739
" />
</g><text x="21250.000000" y="41762.125984"
textLength="2393.346457" font-size="666.653543" lengthAdjust="spacingAndGlyphs"
text-anchor="middle" opacity="0">AOUT0</text>
<g class="stroked-text"><desc>AOUT0</desc>
<path d="M20178 41595
L20416 41595
" />
<path d="M20130 41738
L20297 41238
L20464 41738
" />
<path d="M20726 41238
L20821 41238
L20869 41262
L20916 41309
L20940 41404
L20940 41571
L20916 41666
L20869 41714
L20821 41738
L20726 41738
L20678 41714
L20630 41666
L20607 41571
L20607 41404
L20630 41309
L20678 41262
L20726 41238
" />
<path d="M21154 41238
L21154 41643
L21178 41690
L21202 41714
L21250 41738
L21345 41738
L21392 41714
L21416 41690
L21440 41643
L21440 41238
" />
<path d="M21607 41238
L21892 41238
" />
<path d="M21750 41738
L21750 41238
" />
<path d="M22154 41238
L22202 41238
L22250 41262
L22273 41285
L22297 41333
L22321 41428
L22321 41547
L22297 41643
L22273 41690
L22250 41714
L22202 41738
L22154 41738
L22107 41714
L22083 41690
L22059 41643
L22035 41547
L22035 41428
L22059 41333
L22083 41285
L22107 41262
L22154 41238
" />
</g></g>
</g>
<g style="fill:#000000; fill-opacity:0.0; 
stroke:#000000; stroke-width:60.000000; stroke-opacity:1; 
stroke-linecap:round; stroke-linejoin:round;">
<g >
<path style="fill:#000000; fill-opacity:0.0; 
stroke:#000000; stroke-width:60.000000; stroke-opacity:1; 
stroke-linecap:round; stroke-linejoin:round;fill:none"
d="M 21500.000000,30000.000000
21340.000000,30000.000000
" /> 
</g>
<g style="fill:#000000; fill-opacity:1.0; 
stroke:#000000; stroke-width:60.000000; stroke-opacity:1; 
stroke-linecap:round; stroke-linejoin:round;">
<rect x="21000.000000" y="29950.000000" width="340.000000" height="100.000000" rx="0.000000" />
</g>
<g style="fill:#000000; fill-opacity:0.0; 
stroke:#000000; stroke-width:60.000000; stroke-opacity:1; 
stroke-linecap:round; stroke-linejoin:round;">
<path d="M21500 30000
L23000 30000
" />
<text x="22250.000000" y="29900.000000"
textLength="536.181102" font-size="666.653543" lengthAdjust="spacingAndGlyphs"
text-anchor="middle" opacity="0">1</text>
<g class="stroked-text"><desc>1</desc>
<path d="M22392 29876
L22107 29876
" />
<path d="M22250 29876
L22250 29376
L22202 29447
L22154 29495
L22107 29519
" />
</g><text x="21250.000000" y="28763.346457"
textLength="1417.125984" font-size="666.653543" lengthAdjust="spacingAndGlyphs"
text-anchor="middle" opacity="0">TP6</text>
<g class="stroked-text"><desc>TP6</desc>
<path d="M20619 28239
L20904 28239
" />
<path d="M20761 28739
L20761 28239
" />
<path d="M21071 28739
L21071 28239
L21261 28239
L21309 28263
L21333 28287
L21357 28334
L21357 28406
L21333 28453
L21309 28477
L21261 28501
L21071 28501
" />
<path d="M21785 28239
L21690 28239
L21642 28263
L21619 28287
L21571 28358
L21547 28453
L21547 28644
L21571 28691
L21595 28715
L21642 28739
L21738 28739
L21785 28715
L21809 28691
L21833 28644
L21833 28525
L21809 28477
L21785 28453
L21738 28430
L21642 28430
L21595 28453
L21571 28477
L21547 28525
" />
</g><text x="21250.000000" y="29762.125984"
textLength="1655.236220" font-size="666.653543" lengthAdjust="spacingAndGlyphs"
text-anchor="middle" opacity="0">RX+</text>
<g class="stroked-text"><desc>RX+</desc>
<path d="M20857 29738
L20690 29500
" />
<path d="M20571 29738
L20571 29238
L20761 29238
L20809 29262
L20833 29285
L20857 29333
L20857 29404
L20833 29452
L20809 29476
L20761 29500
L20571 29500
" />
<path d="M21023 29238
L21357 29738
" />
<path d="M21357 29238
L21023 29738
" />
<path d="M21547 29547
L21928 29547
" />
<path d="M21738 29738
L21738 29357
" />
</g></g>
</g>
<g style="fill:#000000; fill-opacity:0.0; 
stroke:#000000; stroke-width:60.000000; stroke-opacity:1; 
stroke-linecap:round; stroke-linejoin:round;">
<g >
<path style="fill:#000000; fill-opacity:0.0; 
stroke:#000000; stroke-width:60.000000; stroke-opacity:1; 
stroke-linecap:round; stroke-linejoin:round;fill:none"
d="M 21500.000000,28000.000000
21340.000000,28000.000000
" /> 
</g>
<g style="fill:#000000; fill-opacity:1.0; 
stroke:#000000; stroke-width:60.000000; stroke-opacity:1; 
stroke-linecap:round; stroke-linejoin:round;">
<rect x="21000.000000" y="27950.000000" width="340.000000" height="100.000000" rx="0.000000" />
</g>
<g style="fill:#000000; fill-opacity:0.0; 
stroke:#000000; stroke-width:60.000000; stroke-opacity:1; 
stroke-linecap:round; stroke-linejoin:round;">
<path d="M21500 28000
L23000 28000
" />
<text x="22250.000000" y="27900.000000"
textLength="536.181102" font-size="666.653543" lengthAdjust="spacingAndGlyphs"
text-anchor="middle" opacity="0">1</text>
<g class="stroked-text"><desc>1</desc>
<path d="M22392 27876
L22107 27876
" />
<path d="M22250 27876
L22250 27376
L22202 27447
L22154 27495
L22107 27519
" />
</g><text x="21250.000000" y="26763.346457"
textLength="1417.125984" font-size="666.653543" lengthAdjust="spacingAndGlyphs"
text-anchor="middle" opacity="0">TP5</text>
<g class="stroked-text"><desc>TP5</desc>
<path d="M20619 26239
L20904 26239
" />
<path d="M20761 26739
L20761 26239
" />
<path d="M21071 26739
L21071 26239
L21261 26239
L21309 26263
L21333 26287
L21357 26334
L21357 26406
L21333 26453
L21309 26477
L21261 26501
L21071 26501
" />
<path d="M21809 26239
L21571 26239
L21547 26477
L21571 26453
L21619 26430
L21738 26430
L21785 26453
L21809 26477
L21833 26525
L21833 26644
L21809 26691
L21785 26715
L21738 26739
L21619 26739
L21571 26715
L21547 26691
" />
</g><text x="21250.000000" y="27762.125984"
textLength="2369.527559" font-size="666.653543" lengthAdjust="spacingAndGlyphs"
text-anchor="middle" opacity="0">+3.3D</text>
<g class="stroked-text"><desc>+3.3D</desc>
<path d="M20214 27547
L20595 27547
" />
<path d="M20404 27738
L20404 27357
" />
<path d="M20785 27238
L21095 27238
L20928 27428
L21000 27428
L21047 27452
L21071 27476
L21095 27524
L21095 27643
L21071 27690
L21047 27714
L21000 27738
L20857 27738
L20809 27714
L20785 27690
" />
<path d="M21309 27690
L21333 27714
L21309 27738
L21285 27714
L21309 27690
L21309 27738
" />
<path d="M21500 27238
L21809 27238
L21642 27428
L21714 27428
L21761 27452
L21785 27476
L21809 27524
L21809 27643
L21785 27690
L21761 27714
L21714 27738
L21571 27738
L21523 27714
L21500 27690
" />
<path d="M22023 27738
L22023 27238
L22142 27238
L22214 27262
L22261 27309
L22285 27357
L22309 27452
L22309 27524
L22285 27619
L22261 27666
L22214 27714
L22142 27738
L22023 27738
" />
</g></g>
</g>
<g style="fill:#000000; fill-opacity:0.0; 
stroke:#000000; stroke-width:60.000000; stroke-opacity:1; 
stroke-linecap:round; stroke-linejoin:round;">
<g >
</g>
<g style="fill:#000000; fill-opacity:0.0; 
stroke:#000000; stroke-width:500.000000; stroke-opacity:1; 
stroke-linecap:round; stroke-linejoin:round;">
<circle cx="13000.000000" cy="28500.000000" r="500.000000" /> 
</g>
<g style="fill:#000000; fill-opacity:0.0; 
stroke:#000000; stroke-width:60.000000; stroke-opacity:1; 
stroke-linecap:round; stroke-linejoin:round;">
<path d="M13500 28500
L14500 28500
" />
<text x="13000.000000" y="26750.000000"
textLength="1060.000000" font-size="666.653543" lengthAdjust="spacingAndGlyphs"
text-anchor="middle" opacity="0">H2</text>
<g class="stroked-text"><desc>H2</desc>
<path d="M12619 26726
L12619 26226
" />
<path d="M12619 26464
L12904 26464
" />
<path d="M12904 26726
L12904 26226
" />
<path d="M13119 26273
L13142 26250
L13190 26226
L13309 26226
L13357 26250
L13380 26273
L13404 26321
L13404 26369
L13380 26440
L13095 26726
L13404 26726
" />
</g><text x="12999.960630" y="27592.165354"
textLength="1036.181102" font-size="666.653543" lengthAdjust="spacingAndGlyphs"
text-anchor="middle" opacity="0">#6</text>
<g class="stroked-text"><desc>#6</desc>
<path d="M12607 27235
L12964 27235
" />
<path d="M12749 27020
L12607 27663
" />
<path d="M12916 27449
L12559 27449
" />
<path d="M12773 27663
L12916 27020
" />
<path d="M13345 27068
L13249 27068
L13202 27092
L13178 27115
L13130 27187
L13107 27282
L13107 27473
L13130 27520
L13154 27544
L13202 27568
L13297 27568
L13345 27544
L13368 27520
L13392 27473
L13392 27354
L13368 27306
L13345 27282
L13297 27258
L13202 27258
L13154 27282
L13130 27306
L13107 27354
" />
</g></g>
</g>
<g style="fill:#000000; fill-opacity:0.0; 
stroke:#000000; stroke-width:60.000000; stroke-opacity:1; 
stroke-linecap:round; stroke-linejoin:round;">
<g >
</g>
<g style="fill:#000000; fill-opacity:0.0; 
stroke:#000000; stroke-width:500.000000; stroke-opacity:1; 
stroke-linecap:round; stroke-linejoin:round;">
<circle cx="13000.000000" cy="25000.000000" r="500.000000" /> 
</g>
<g style="fill:#000000; fill-opacity:0.0; 
stroke:#000000; stroke-width:60.000000; stroke-opacity:1; 
stroke-linecap:round; stroke-linejoin:round;">
<path d="M13500 25000
L14500 25000
" />
<text x="13000.000000" y="23093.385827"
textLength="1060.000000" font-size="666.653543" lengthAdjust="spacingAndGlyphs"
text-anchor="middle" opacity="0">H1</text>
<g class="stroked-text"><desc>H1</desc>
<path d="M12619 23069
L12619 22569
" />
<path d="M12619 22807
L12904 22807
" />
<path d="M12904 23069
L12904 22569
" />
<path d="M13404 23069
L13119 23069
" />
<path d="M13261 23069
L13261 22569
L13214 22640
L13166 22688
L13119 22712
" />
</g><text x="12999.960630" y="24092.165354"
textLength="1036.181102" font-size="666.653543" lengthAdjust="spacingAndGlyphs"
text-anchor="middle" opacity="0">#6</text>
<g class="stroked-text"><desc>#6</desc>
<path d="M12607 23735
L12964 23735
" />
<path d="M12749 23520
L12607 24163
" />
<path d="M12916 23949
L12559 23949
" />
<path d="M12773 24163
L12916 23520
" />
<path d="M13345 23568
L13249 23568
L13202 23592
L13178 23615
L13130 23687
L13107 23782
L13107 23973
L13130 24020
L13154 24044
L13202 24068
L13297 24068
L13345 24044
L13368 24020
L13392 23973
L13392 23854
L13368 23806
L13345 23782
L13297 23758
L13202 23758
L13154 23782
L13130 23806
L13107 23854
" />
</g></g>
</g>
<g style="fill:#000000; fill-opacity:0.0; 
stroke:#000000; stroke-width:60.000000; stroke-opacity:1; 
stroke-linecap:round; stroke-linejoin:round;">
<g >
</g>
<g style="fill:#000000; fill-opacity:0.0; 
stroke:#000000; stroke-width:500.000000; stroke-opacity:1; 
stroke-linecap:round; stroke-linejoin:round;">
<circle cx="13000.000000" cy="32000.000000" r="500.000000" /> 
</g>
<g style="fill:#000000; fill-opacity:0.0; 
stroke:#000000; stroke-width:60.000000; stroke-opacity:1; 
stroke-linecap:round; stroke-linejoin:round;">
<path d="M13500 32000
L14500 32000
" />
<text x="13000.000000" y="30250.000000"
textLength="1060.000000" font-size="666.653543" lengthAdjust="spacingAndGlyphs"
text-anchor="middle" opacity="0">H3</text>
<g class="stroked-text"><desc>H3</desc>
<path d="M12619 30226
L12619 29726
" />
<path d="M12619 29964
L12904 29964
" />
<path d="M12904 30226
L12904 29726
" />
<path d="M13095 29726
L13404 29726
L13238 29916
L13309 29916
L13357 29940
L13380 29964
L13404 30011
L13404 30130
L13380 30178
L13357 30202
L13309 30226
L13166 30226
L13119 30202
L13095 30178
" />
</g><text x="12999.960630" y="31092.165354"
textLength="1036.181102" font-size="666.653543" lengthAdjust="spacingAndGlyphs"
text-anchor="middle" opacity="0">#6</text>
<g class="stroked-text"><desc>#6</desc>
<path d="M12607 30735
L12964 30735
" />
<path d="M12749 30520
L12607 31163
" />
<path d="M12916 30949
L12559 30949
" />
<path d="M12773 31163
L12916 30520
" />
<path d="M13345 30568
L13249 30568
L13202 30592
L13178 30615
L13130 30687
L13107 30782
L13107 30973
L13130 31020
L13154 31044
L13202 31068
L13297 31068
L13345 31044
L13368 31020
L13392 30973
L13392 30854
L13368 30806
L13345 30782
L13297 30758
L13202 30758
L13154 30782
L13130 30806
L13107 30854
" />
</g></g>
</g>
<g style="fill:#000000; fill-opacity:0.0; 
stroke:#000000; stroke-width:60.000000; stroke-opacity:1; 
stroke-linecap:round; stroke-linejoin:round;">
<g >
<path style="fill:#000000; fill-opacity:0.0; 
stroke:#000000; stroke-width:60.000000; stroke-opacity:1; 
stroke-linecap:round; stroke-linejoin:round;fill:none"
d="M 21500.000000,20000.000000
21340.000000,20000.000000
" /> 
</g>
<g style="fill:#000000; fill-opacity:1.0; 
stroke:#000000; stroke-width:60.000000; stroke-opacity:1; 
stroke-linecap:round; stroke-linejoin:round;">
<rect x="21000.000000" y="19950.000000" width="340.000000" height="100.000000" rx="0.000000" />
</g>
<g style="fill:#000000; fill-opacity:0.0; 
stroke:#000000; stroke-width:60.000000; stroke-opacity:1; 
stroke-linecap:round; stroke-linejoin:round;">
<path d="M21500 20000
L23000 20000
" />
<text x="22250.000000" y="19900.000000"
textLength="536.181102" font-size="666.653543" lengthAdjust="spacingAndGlyphs"
text-anchor="middle" opacity="0">1</text>
<g class="stroked-text"><desc>1</desc>
<path d="M22392 19876
L22107 19876
" />
<path d="M22250 19876
L22250 19376
L22202 19447
L22154 19495
L22107 19519
" />
</g><text x="21250.000000" y="18763.346457"
textLength="1417.125984" font-size="666.653543" lengthAdjust="spacingAndGlyphs"
text-anchor="middle" opacity="0">TP1</text>
<g class="stroked-text"><desc>TP1</desc>
<path d="M20619 18239
L20904 18239
" />
<path d="M20761 18739
L20761 18239
" />
<path d="M21071 18739
L21071 18239
L21261 18239
L21309 18263
L21333 18287
L21357 18334
L21357 18406
L21333 18453
L21309 18477
L21261 18501
L21071 18501
" />
<path d="M21833 18739
L21547 18739
" />
<path d="M21690 18739
L21690 18239
L21642 18310
L21595 18358
L21547 18382
" />
</g><text x="21250.000000" y="19762.125984"
textLength="1679.055118" font-size="666.653543" lengthAdjust="spacingAndGlyphs"
text-anchor="middle" opacity="0">VINF</text>
<g class="stroked-text"><desc>VINF</desc>
<path d="M20488 19238
L20654 19738
L20821 19238
" />
<path d="M20988 19738
L20988 19238
" />
<path d="M21226 19738
L21226 19238
L21511 19738
L21511 19238
" />
<path d="M21916 19476
L21750 19476
" />
<path d="M21750 19738
L21750 19238
L21988 19238
" />
</g></g>
</g>
<g style="fill:#000000; fill-opacity:0.0; 
stroke:#000000; stroke-width:60.000000; stroke-opacity:1; 
stroke-linecap:round; stroke-linejoin:round;">
<g >
<path style="fill:#000000; fill-opacity:0.0; 
stroke:#000000; stroke-width:60.000000; stroke-opacity:1; 
stroke-linecap:round; stroke-linejoin:round;fill:none"
d="M 21500.000000,24000.000000
21340.000000,24000.000000
" /> 
</g>
<g style="fill:#000000; fill-opacity:1.0; 
stroke:#000000; stroke-width:60.000000; stroke-opacity:1; 
stroke-linecap:round; stroke-linejoin:round;">
<rect x="21000.000000" y="23950.000000" width="340.000000" height="100.000000" rx="0.000000" />
</g>
<g style="fill:#000000; fill-opacity:0.0; 
stroke:#000000; stroke-width:60.000000; stroke-opacity:1; 
stroke-linecap:round; stroke-linejoin:round;">
<path d="M21500 24000
L23000 24000
" />
<text x="22250.000000" y="23900.000000"
textLength="536.181102" font-size="666.653543" lengthAdjust="spacingAndGlyphs"
text-anchor="middle" opacity="0">1</text>
<g class="stroked-text"><desc>1</desc>
<path d="M22392 23876
L22107 23876
" />
<path d="M22250 23876
L22250 23376
L22202 23447
L22154 23495
L22107 23519
" />
</g><text x="21250.000000" y="22763.346457"
textLength="1417.125984" font-size="666.653543" lengthAdjust="spacingAndGlyphs"
text-anchor="middle" opacity="0">TP3</text>
<g class="stroked-text"><desc>TP3</desc>
<path d="M20619 22239
L20904 22239
" />
<path d="M20761 22739
L20761 22239
" />
<path d="M21071 22739
L21071 22239
L21261 22239
L21309 22263
L21333 22287
L21357 22334
L21357 22406
L21333 22453
L21309 22477
L21261 22501
L21071 22501
" />
<path d="M21523 22239
L21833 22239
L21666 22430
L21738 22430
L21785 22453
L21809 22477
L21833 22525
L21833 22644
L21809 22691
L21785 22715
L21738 22739
L21595 22739
L21547 22715
L21523 22691
" />
</g><text x="21250.000000" y="23762.125984"
textLength="1155.236220" font-size="666.653543" lengthAdjust="spacingAndGlyphs"
text-anchor="middle" opacity="0">+5</text>
<g class="stroked-text"><desc>+5</desc>
<path d="M20821 23547
L21202 23547
" />
<path d="M21011 23738
L21011 23357
" />
<path d="M21678 23238
L21440 23238
L21416 23476
L21440 23452
L21488 23428
L21607 23428
L21654 23452
L21678 23476
L21702 23524
L21702 23643
L21678 23690
L21654 23714
L21607 23738
L21488 23738
L21440 23714
L21416 23690
" />
</g></g>
</g>
<g style="fill:#000000; fill-opacity:0.0; 
stroke:#000000; stroke-width:60.000000; stroke-opacity:1; 
stroke-linecap:round; stroke-linejoin:round;">
<g >
<path style="fill:#000000; fill-opacity:0.0; 
stroke:#000000; stroke-width:60.000000; stroke-opacity:1; 
stroke-linecap:round; stroke-linejoin:round;fill:none"
d="M 21500.000000,26000.000000
21340.000000,26000.000000
" /> 
</g>
<g style="fill:#000000; fill-opacity:1.0; 
stroke:#000000; stroke-width:60.000000; stroke-opacity:1; 
stroke-linecap:round; stroke-linejoin:round;">
<rect x="21000.000000" y="25950.000000" width="340.000000" height="100.000000" rx="0.000000" />
</g>
<g style="fill:#000000; fill-opacity:0.0; 
stroke:#000000; stroke-width:60.000000; stroke-opacity:1; 
stroke-linecap:round; stroke-linejoin:round;">
<path d="M21500 26000
L23000 26000
" />
<text x="22250.000000" y="25900.000000"
textLength="536.181102" font-size="666.653543" lengthAdjust="spacingAndGlyphs"
text-anchor="middle" opacity="0">1</text>
<g class="stroked-text"><desc>1</desc>
<path d="M22392 25876
L22107 25876
" />
<path d="M22250 25876
L22250 25376
L22202 25447
L22154 25495
L22107 25519
" />
</g><text x="21250.000000" y="24763.346457"
textLength="1417.125984" font-size="666.653543" lengthAdjust="spacingAndGlyphs"
text-anchor="middle" opacity="0">TP4</text>
<g class="stroked-text"><desc>TP4</desc>
<path d="M20619 24239
L20904 24239
" />
<path d="M20761 24739
L20761 24239
" />
<path d="M21071 24739
L21071 24239
L21261 24239
L21309 24263
L21333 24287
L21357 24334
L21357 24406
L21333 24453
L21309 24477
L21261 24501
L21071 24501
" />
<path d="M21785 24406
L21785 24739
" />
<path d="M21666 24215
L21547 24572
L21857 24572
" />
</g><text x="21250.000000" y="25762.125984"
textLength="1583.818898" font-size="666.653543" lengthAdjust="spacingAndGlyphs"
text-anchor="middle" opacity="0">GND</text>
<g class="stroked-text"><desc>GND</desc>
<path d="M20869 25262
L20821 25238
L20750 25238
L20678 25262
L20630 25309
L20607 25357
L20583 25452
L20583 25524
L20607 25619
L20630 25666
L20678 25714
L20750 25738
L20797 25738
L20869 25714
L20892 25690
L20892 25524
L20797 25524
" />
<path d="M21107 25738
L21107 25238
L21392 25738
L21392 25238
" />
<path d="M21630 25738
L21630 25238
L21750 25238
L21821 25262
L21869 25309
L21892 25357
L21916 25452
L21916 25524
L21892 25619
L21869 25666
L21821 25714
L21750 25738
L21630 25738
" />
</g></g>
</g>
<g style="fill:#000000; fill-opacity:0.0; 
stroke:#000000; stroke-width:60.000000; stroke-opacity:1; 
stroke-linecap:round; stroke-linejoin:round;">
<g >
<path style="fill:#000000; fill-opacity:0.0; 
stroke:#000000; stroke-width:60.000000; stroke-opacity:1; 
stroke-linecap:round; stroke-linejoin:round;fill:none"
d="M 21500.000000,22000.000000
21340.000000,22000.000000
" /> 
</g>
<g style="fill:#000000; fill-opacity:1.0; 
stroke:#000000; stroke-width:60.000000; stroke-opacity:1; 
stroke-linecap:round; stroke-linejoin:round;">
<rect x="21000.000000" y="21950.000000" width="340.000000" height="100.000000" rx="0.000000" />
</g>
<g style="fill:#000000; fill-opacity:0.0; 
stroke:#000000; stroke-width:60.000000; stroke-opacity:1; 
stroke-linecap:round; stroke-linejoin:round;">
<path d="M21500 22000
L23000 22000
" />
<text x="22250.000000" y="21900.000000"
textLength="536.181102" font-size="666.653543" lengthAdjust="spacingAndGlyphs"
text-anchor="middle" opacity="0">1</text>
<g class="stroked-text"><desc>1</desc>
<path d="M22392 21876
L22107 21876
" />
<path d="M22250 21876
L22250 21376
L22202 21447
L22154 21495
L22107 21519
" />
</g><text x="21250.000000" y="20763.346457"
textLength="1417.125984" font-size="666.653543" lengthAdjust="spacingAndGlyphs"
text-anchor="middle" opacity="0">TP2</text>
<g class="stroked-text"><desc>TP2</desc>
<path d="M20619 20239
L20904 20239
" />
<path d="M20761 20739
L20761 20239
" />
<path d="M21071 20739
L21071 20239
L21261 20239
L21309 20263
L21333 20287
L21357 20334
L21357 20406
L21333 20453
L21309 20477
L21261 20501
L21071 20501
" />
<path d="M21547 20287
L21571 20263
L21619 20239
L21738 20239
L21785 20263
L21809 20287
L21833 20334
L21833 20382
L21809 20453
L21523 20739
L21833 20739
" />
</g><text x="21250.000000" y="21762.125984"
textLength="1631.417323" font-size="666.653543" lengthAdjust="spacingAndGlyphs"
text-anchor="middle" opacity="0">+13</text>
<g class="stroked-text"><desc>+13</desc>
<path d="M20583 21547
L20964 21547
" />
<path d="M20773 21738
L20773 21357
" />
<path d="M21464 21738
L21178 21738
" />
<path d="M21321 21738
L21321 21238
L21273 21309
L21226 21357
L21178 21381
" />
<path d="M21630 21238
L21940 21238
L21773 21428
L21845 21428
L21892 21452
L21916 21476
L21940 21524
L21940 21643
L21916 21690
L21892 21714
L21845 21738
L21702 21738
L21654 21714
L21630 21690
" />
</g></g>
</g>
<g style="fill:#000000; fill-opacity:0.0; 
stroke:#000000; stroke-width:60.000000; stroke-opacity:1; 
stroke-linecap:round; stroke-linejoin:round;">
<g >
<path style="fill:#000000; fill-opacity:0.0; 
stroke:#000000; stroke-width:60.000000; stroke-opacity:1; 
stroke-linecap:round; stroke-linejoin:round;fill:none"
d="M 21500.000000,48000.000000
21340.000000,48000.000000
" /> 
</g>
<g style="fill:#000000; fill-opacity:1.0; 
stroke:#000000; stroke-width:60.000000; stroke-opacity:1; 
stroke-linecap:round; stroke-linejoin:round;">
<rect x="21000.000000" y="47950.000000" width="340.000000" height="100.000000" rx="0.000000" />
</g>
<g style="fill:#000000; fill-opacity:0.0; 
stroke:#000000; stroke-width:60.000000; stroke-opacity:1; 
stroke-linecap:round; stroke-linejoin:round;">
<path d="M21500 48000
L23000 48000
" />
<text x="22250.000000" y="47900.000000"
textLength="536.181102" font-size="666.653543" lengthAdjust="spacingAndGlyphs"
text-anchor="middle" opacity="0">1</text>
<g class="stroked-text"><desc>1</desc>
<path d="M22392 47876
L22107 47876
" />
<path d="M22250 47876
L22250 47376
L22202 47447
L22154 47495
L22107 47519
" />
</g><text x="21250.000000" y="46763.346457"
textLength="1893.346457" font-size="666.653543" lengthAdjust="spacingAndGlyphs"
text-anchor="middle" opacity="0">TP15</text>
<g class="stroked-text"><desc>TP15</desc>
<path d="M20380 46239
L20666 46239
" />
<path d="M20523 46739
L20523 46239
" />
<path d="M20833 46739
L20833 46239
L21023 46239
L21071 46263
L21095 46287
L21119 46334
L21119 46406
L21095 46453
L21071 46477
L21023 46501
L20833 46501
" />
<path d="M21595 46739
L21309 46739
" />
<path d="M21452 46739
L21452 46239
L21404 46310
L21357 46358
L21309 46382
" />
<path d="M22047 46239
L21809 46239
L21785 46477
L21809 46453
L21857 46430
L21976 46430
L22023 46453
L22047 46477
L22071 46525
L22071 46644
L22047 46691
L22023 46715
L21976 46739
L21857 46739
L21809 46715
L21785 46691
" />
</g><text x="21250.000000" y="47762.125984"
textLength="1583.818898" font-size="666.653543" lengthAdjust="spacingAndGlyphs"
text-anchor="middle" opacity="0">GND</text>
<g class="stroked-text"><desc>GND</desc>
<path d="M20869 47262
L20821 47238
L20750 47238
L20678 47262
L20630 47309
L20607 47357
L20583 47452
L20583 47524
L20607 47619
L20630 47666
L20678 47714
L20750 47738
L20797 47738
L20869 47714
L20892 47690
L20892 47524
L20797 47524
" />
<path d="M21107 47738
L21107 47238
L21392 47738
L21392 47238
" />
<path d="M21630 47738
L21630 47238
L21750 47238
L21821 47262
L21869 47309
L21892 47357
L21916 47452
L21916 47524
L21892 47619
L21869 47666
L21821 47714
L21750 47738
L21630 47738
" />
</g></g>
</g>
<g style="fill:#000000; fill-opacity:0.0; 
stroke:#000000; stroke-width:60.000000; stroke-opacity:1; 
stroke-linecap:round; stroke-linejoin:round;">
<g >
<path style="fill:#000000; fill-opacity:0.0; 
stroke:#000000; stroke-width:60.000000; stroke-opacity:1; 
stroke-linecap:round; stroke-linejoin:round;fill:none"
d="M 21500.000000,32000.000000
21340.000000,32000.000000
" /> 
</g>
<g style="fill:#000000; fill-opacity:1.0; 
stroke:#000000; stroke-width:60.000000; stroke-opacity:1; 
stroke-linecap:round; stroke-linejoin:round;">
<rect x="21000.000000" y="31950.000000" width="340.000000" height="100.000000" rx="0.000000" />
</g>
<g style="fill:#000000; fill-opacity:0.0; 
stroke:#000000; stroke-width:60.000000; stroke-opacity:1; 
stroke-linecap:round; stroke-linejoin:round;">
<path d="M21500 32000
L23000 32000
" />
<text x="22250.000000" y="31900.000000"
textLength="536.181102" font-size="666.653543" lengthAdjust="spacingAndGlyphs"
text-anchor="middle" opacity="0">1</text>
<g class="stroked-text"><desc>1</desc>
<path d="M22392 31876
L22107 31876
" />
<path d="M22250 31876
L22250 31376
L22202 31447
L22154 31495
L22107 31519
" />
</g><text x="21250.000000" y="30763.346457"
textLength="1417.125984" font-size="666.653543" lengthAdjust="spacingAndGlyphs"
text-anchor="middle" opacity="0">TP7</text>
<g class="stroked-text"><desc>TP7</desc>
<path d="M20619 30239
L20904 30239
" />
<path d="M20761 30739
L20761 30239
" />
<path d="M21071 30739
L21071 30239
L21261 30239
L21309 30263
L21333 30287
L21357 30334
L21357 30406
L21333 30453
L21309 30477
L21261 30501
L21071 30501
" />
<path d="M21523 30239
L21857 30239
L21642 30739
" />
</g><text x="21250.000000" y="31762.125984"
textLength="1655.236220" font-size="666.653543" lengthAdjust="spacingAndGlyphs"
text-anchor="middle" opacity="0">RX-</text>
<g class="stroked-text"><desc>RX-</desc>
<path d="M20857 31738
L20690 31500
" />
<path d="M20571 31738
L20571 31238
L20761 31238
L20809 31262
L20833 31285
L20857 31333
L20857 31404
L20833 31452
L20809 31476
L20761 31500
L20571 31500
" />
<path d="M21023 31238
L21357 31738
" />
<path d="M21357 31238
L21023 31738
" />
<path d="M21547 31547
L21928 31547
" />
</g></g>
</g>
<g style="fill:#000000; fill-opacity:0.0; 
stroke:#000000; stroke-width:60.000000; stroke-opacity:1; 
stroke-linecap:round; stroke-linejoin:round;">
<g >
<path style="fill:#000000; fill-opacity:0.0; 
stroke:#000000; stroke-width:60.000000; stroke-opacity:1; 
stroke-linecap:round; stroke-linejoin:round;fill:none"
d="M 21500.000000,46000.000000
21340.000000,46000.000000
" /> 
</g>
<g style="fill:#000000; fill-opacity:1.0; 
stroke:#000000; stroke-width:60.000000; stroke-opacity:1; 
stroke-linecap:round; stroke-linejoin:round;">
<rect x="21000.000000" y="45950.000000" width="340.000000" height="100.000000" rx="0.000000" />
</g>
<g style="fill:#000000; fill-opacity:0.0; 
stroke:#000000; stroke-width:60.000000; stroke-opacity:1; 
stroke-linecap:round; stroke-linejoin:round;">
<path d="M21500 46000
L23000 46000
" />
<text x="22250.000000" y="45900.000000"
textLength="536.181102" font-size="666.653543" lengthAdjust="spacingAndGlyphs"
text-anchor="middle" opacity="0">1</text>
<g class="stroked-text"><desc>1</desc>
<path d="M22392 45876
L22107 45876
" />
<path d="M22250 45876
L22250 45376
L22202 45447
L22154 45495
L22107 45519
" />
</g><text x="21250.000000" y="44763.346457"
textLength="1893.346457" font-size="666.653543" lengthAdjust="spacingAndGlyphs"
text-anchor="middle" opacity="0">TP14</text>
<g class="stroked-text"><desc>TP14</desc>
<path d="M20380 44239
L20666 44239
" />
<path d="M20523 44739
L20523 44239
" />
<path d="M20833 44739
L20833 44239
L21023 44239
L21071 44263
L21095 44287
L21119 44334
L21119 44406
L21095 44453
L21071 44477
L21023 44501
L20833 44501
" />
<path d="M21595 44739
L21309 44739
" />
<path d="M21452 44739
L21452 44239
L21404 44310
L21357 44358
L21309 44382
" />
<path d="M22023 44406
L22023 44739
" />
<path d="M21904 44215
L21785 44572
L22095 44572
" />
</g><text x="21250.000000" y="45762.125984"
textLength="1798.110236" font-size="666.653543" lengthAdjust="spacingAndGlyphs"
text-anchor="middle" opacity="0">+VIn</text>
<g class="stroked-text"><desc>+VIn</desc>
<path d="M20500 45547
L20880 45547
" />
<path d="M20690 45738
L20690 45357
" />
<path d="M21047 45238
L21214 45738
L21380 45238
" />
<path d="M21547 45738
L21547 45238
" />
<path d="M21785 45404
L21785 45738
" />
<path d="M21785 45452
L21809 45428
L21857 45404
L21928 45404
L21976 45428
L22000 45476
L22000 45738
" />
</g></g>
</g>
<g style="fill:#000000; fill-opacity:0.0; 
stroke:#000000; stroke-width:60.000000; stroke-opacity:1; 
stroke-linecap:round; stroke-linejoin:round;">
<g >
<path style="fill:#000000; fill-opacity:0.0; 
stroke:#000000; stroke-width:60.000000; stroke-opacity:1; 
stroke-linecap:round; stroke-linejoin:round;fill:none"
d="M 21500.000000,44000.000000
21340.000000,44000.000000
" /> 
</g>
<g style="fill:#000000; fill-opacity:1.0; 
stroke:#000000; stroke-width:60.000000; stroke-opacity:1; 
stroke-linecap:round; stroke-linejoin:round;">
<rect x="21000.000000" y="43950.000000" width="340.000000" height="100.000000" rx="0.000000" />
</g>
<g style="fill:#000000; fill-opacity:0.0; 
stroke:#000000; stroke-width:60.000000; stroke-opacity:1; 
stroke-linecap:round; stroke-linejoin:round;">
<path d="M21500 44000
L23000 44000
" />
<text x="22250.000000" y="43900.000000"
textLength="536.181102" font-size="666.653543" lengthAdjust="spacingAndGlyphs"
text-anchor="middle" opacity="0">1</text>
<g class="stroked-text"><desc>1</desc>
<path d="M22392 43876
L22107 43876
" />
<path d="M22250 43876
L22250 43376
L22202 43447
L22154 43495
L22107 43519
" />
</g><text x="21250.000000" y="42763.346457"
textLength="1893.346457" font-size="666.653543" lengthAdjust="spacingAndGlyphs"
text-anchor="middle" opacity="0">TP13</text>
<g class="stroked-text"><desc>TP13</desc>
<path d="M20380 42239
L20666 42239
" />
<path d="M20523 42739
L20523 42239
" />
<path d="M20833 42739
L20833 42239
L21023 42239
L21071 42263
L21095 42287
L21119 42334
L21119 42406
L21095 42453
L21071 42477
L21023 42501
L20833 42501
" />
<path d="M21595 42739
L21309 42739
" />
<path d="M21452 42739
L21452 42239
L21404 42310
L21357 42358
L21309 42382
" />
<path d="M21761 42239
L22071 42239
L21904 42430
L21976 42430
L22023 42453
L22047 42477
L22071 42525
L22071 42644
L22047 42691
L22023 42715
L21976 42739
L21833 42739
L21785 42715
L21761 42691
" />
</g><text x="21250.000000" y="43762.125984"
textLength="2393.346457" font-size="666.653543" lengthAdjust="spacingAndGlyphs"
text-anchor="middle" opacity="0">AOUT1</text>
<g class="stroked-text"><desc>AOUT1</desc>
<path d="M20178 43595
L20416 43595
" />
<path d="M20130 43738
L20297 43238
L20464 43738
" />
<path d="M20726 43238
L20821 43238
L20869 43262
L20916 43309
L20940 43404
L20940 43571
L20916 43666
L20869 43714
L20821 43738
L20726 43738
L20678 43714
L20630 43666
L20607 43571
L20607 43404
L20630 43309
L20678 43262
L20726 43238
" />
<path d="M21154 43238
L21154 43643
L21178 43690
L21202 43714
L21250 43738
L21345 43738
L21392 43714
L21416 43690
L21440 43643
L21440 43238
" />
<path d="M21607 43238
L21892 43238
" />
<path d="M21750 43738
L21750 43238
" />
<path d="M22321 43738
L22035 43738
" />
<path d="M22178 43738
L22178 43238
L22130 43309
L22083 43357
L22035 43381
" />
</g></g>
</g>
<g style="fill:#000000; fill-opacity:0.0; 
stroke:#000000; stroke-width:60.000000; stroke-opacity:1; 
stroke-linecap:round; stroke-linejoin:round;">
<g >
<path style="fill:#000000; fill-opacity:0.0; 
stroke:#000000; stroke-width:60.000000; stroke-opacity:1; 
stroke-linecap:round; stroke-linejoin:round;fill:none"
d="M 21500.000000,50250.000000
21340.000000,50250.000000
" /> 
</g>
<g style="fill:#000000; fill-opacity:1.0; 
stroke:#000000; stroke-width:60.000000; stroke-opacity:1; 
stroke-linecap:round; stroke-linejoin:round;">
<rect x="21000.000000" y="50200.000000" width="340.000000" height="100.000000" rx="0.000000" />
</g>
<g style="fill:#000000; fill-opacity:0.0; 
stroke:#000000; stroke-width:60.000000; stroke-opacity:1; 
stroke-linecap:round; stroke-linejoin:round;">
<path d="M21500 50250
L23000 50250
" />
<text x="22250.000000" y="50150.000000"
textLength="536.181102" font-size="666.653543" lengthAdjust="spacingAndGlyphs"
text-anchor="middle" opacity="0">1</text>
<g class="stroked-text"><desc>1</desc>
<path d="M22392 50126
L22107 50126
" />
<path d="M22250 50126
L22250 49626
L22202 49697
L22154 49745
L22107 49769
" />
</g><text x="21250.000000" y="49013.346457"
textLength="1893.346457" font-size="666.653543" lengthAdjust="spacingAndGlyphs"
text-anchor="middle" opacity="0">TP16</text>
<g class="stroked-text"><desc>TP16</desc>
<path d="M20380 48489
L20666 48489
" />
<path d="M20523 48989
L20523 48489
" />
<path d="M20833 48989
L20833 48489
L21023 48489
L21071 48513
L21095 48537
L21119 48584
L21119 48656
L21095 48703
L21071 48727
L21023 48751
L20833 48751
" />
<path d="M21595 48989
L21309 48989
" />
<path d="M21452 48989
L21452 48489
L21404 48560
L21357 48608
L21309 48632
" />
<path d="M22023 48489
L21928 48489
L21880 48513
L21857 48537
L21809 48608
L21785 48703
L21785 48894
L21809 48941
L21833 48965
L21880 48989
L21976 48989
L22023 48965
L22047 48941
L22071 48894
L22071 48775
L22047 48727
L22023 48703
L21976 48680
L21880 48680
L21833 48703
L21809 48727
L21785 48775
" />
</g><text x="21250.000000" y="50012.125984"
textLength="1583.818898" font-size="666.653543" lengthAdjust="spacingAndGlyphs"
text-anchor="middle" opacity="0">GND</text>
<g class="stroked-text"><desc>GND</desc>
<path d="M20869 49512
L20821 49488
L20750 49488
L20678 49512
L20630 49559
L20607 49607
L20583 49702
L20583 49774
L20607 49869
L20630 49916
L20678 49964
L20750 49988
L20797 49988
L20869 49964
L20892 49940
L20892 49774
L20797 49774
" />
<path d="M21107 49988
L21107 49488
L21392 49988
L21392 49488
" />
<path d="M21630 49988
L21630 49488
L21750 49488
L21821 49512
L21869 49559
L21892 49607
L21916 49702
L21916 49774
L21892 49869
L21869 49916
L21821 49964
L21750 49988
L21630 49988
" />
</g></g>
</g>
<g style="fill:#000000; fill-opacity:0.0; 
stroke:#000000; stroke-width:60.000000; stroke-opacity:1; 
stroke-linecap:round; stroke-linejoin:round;">
<g >
<path style="fill:#000000; fill-opacity:0.0; 
stroke:#000000; stroke-width:60.000000; stroke-opacity:1; 
stroke-linecap:round; stroke-linejoin:round;fill:none"
d="M 24000.000000,51000.000000
24000.000000,51500.000000
24500.000000,51500.000000
24000.000000,52000.000000
23500.000000,51500.000000
24000.000000,51500.000000
" /> 
</g>
</g>
<g style="fill:#000000; fill-opacity:0.0; 
stroke:#000000; stroke-width:60.000000; stroke-opacity:1; 
stroke-linecap:round; stroke-linejoin:round;">
<g >
</g>
<g style="fill:#000000; fill-opacity:0.0; 
stroke:#000000; stroke-width:500.000000; stroke-opacity:1; 
stroke-linecap:round; stroke-linejoin:round;">
<circle cx="13000.000000" cy="35500.000000" r="500.000000" /> 
</g>
<g style="fill:#000000; fill-opacity:0.0; 
stroke:#000000; stroke-width:60.000000; stroke-opacity:1; 
stroke-linecap:round; stroke-linejoin:round;">
<path d="M13500 35500
L14500 35500
" />
<text x="13000.000000" y="33750.000000"
textLength="1060.000000" font-size="666.653543" lengthAdjust="spacingAndGlyphs"
text-anchor="middle" opacity="0">H4</text>
<g class="stroked-text"><desc>H4</desc>
<path d="M12619 33726
L12619 33226
" />
<path d="M12619 33464
L12904 33464
" />
<path d="M12904 33726
L12904 33226
" />
<path d="M13357 33392
L13357 33726
" />
<path d="M13238 33202
L13119 33559
L13428 33559
" />
</g><text x="12999.960630" y="34592.165354"
textLength="1036.181102" font-size="666.653543" lengthAdjust="spacingAndGlyphs"
text-anchor="middle" opacity="0">#6</text>
<g class="stroked-text"><desc>#6</desc>
<path d="M12607 34235
L12964 34235
" />
<path d="M12749 34020
L12607 34663
" />
<path d="M12916 34449
L12559 34449
" />
<path d="M12773 34663
L12916 34020
" />
<path d="M13345 34068
L13249 34068
L13202 34092
L13178 34115
L13130 34187
L13107 34282
L13107 34473
L13130 34520
L13154 34544
L13202 34568
L13297 34568
L13345 34544
L13368 34520
L13392 34473
L13392 34354
L13368 34306
L13345 34282
L13297 34258
L13202 34258
L13154 34282
L13130 34306
L13107 34354
" />
</g></g>
</g>
<g style="fill:#000000; fill-opacity:0.0; 
stroke:#000000; stroke-width:60.000000; stroke-opacity:1; 
stroke-linecap:round; stroke-linejoin:round;">
<g >
<path style="fill:#000000; fill-opacity:0.0; 
stroke:#000000; stroke-width:60.000000; stroke-opacity:1; 
stroke-linecap:round; stroke-linejoin:round;fill:none"
d="M 15500.000000,38000.000000
15500.000000,38500.000000
16000.000000,38500.000000
15500.000000,39000.000000
15000.000000,38500.000000
15500.000000,38500.000000
" /> 
</g>
</g>
<g style="fill:#000000; fill-opacity:0.0; 
stroke:#000000; stroke-width:60.000000; stroke-opacity:1; 
stroke-linecap:round; stroke-linejoin:round;">
<g >
<path style="fill:#000000; fill-opacity:0.0; 
stroke:#000000; stroke-width:60.000000; stroke-opacity:1; 
stroke-linecap:round; stroke-linejoin:round;fill:none"
d="M 21500.000000,36000.000000
21340.000000,36000.000000
" /> 
</g>
<g style="fill:#000000; fill-opacity:1.0; 
stroke:#000000; stroke-width:60.000000; stroke-opacity:1; 
stroke-linecap:round; stroke-linejoin:round;">
<rect x="21000.000000" y="35950.000000" width="340.000000" height="100.000000" rx="0.000000" />
</g>
<g style="fill:#000000; fill-opacity:0.0; 
stroke:#000000; stroke-width:60.000000; stroke-opacity:1; 
stroke-linecap:round; stroke-linejoin:round;">
<path d="M21500 36000
L23000 36000
" />
<text x="22250.000000" y="35900.000000"
textLength="536.181102" font-size="666.653543" lengthAdjust="spacingAndGlyphs"
text-anchor="middle" opacity="0">1</text>
<g class="stroked-text"><desc>1</desc>
<path d="M22392 35876
L22107 35876
" />
<path d="M22250 35876
L22250 35376
L22202 35447
L22154 35495
L22107 35519
" />
</g><text x="21250.000000" y="34763.346457"
textLength="1417.125984" font-size="666.653543" lengthAdjust="spacingAndGlyphs"
text-anchor="middle" opacity="0">TP9</text>
<g class="stroked-text"><desc>TP9</desc>
<path d="M20619 34239
L20904 34239
" />
<path d="M20761 34739
L20761 34239
" />
<path d="M21071 34739
L21071 34239
L21261 34239
L21309 34263
L21333 34287
L21357 34334
L21357 34406
L21333 34453
L21309 34477
L21261 34501
L21071 34501
" />
<path d="M21595 34739
L21690 34739
L21738 34715
L21761 34691
L21809 34620
L21833 34525
L21833 34334
L21809 34287
L21785 34263
L21738 34239
L21642 34239
L21595 34263
L21571 34287
L21547 34334
L21547 34453
L21571 34501
L21595 34525
L21642 34549
L21738 34549
L21785 34525
L21809 34501
L21833 34453
" />
</g><text x="21250.000000" y="35762.125984"
textLength="1536.181102" font-size="666.653543" lengthAdjust="spacingAndGlyphs"
text-anchor="middle" opacity="0">TX-</text>
<g class="stroked-text"><desc>TX-</desc>
<path d="M20559 35238
L20845 35238
" />
<path d="M20702 35738
L20702 35238
" />
<path d="M20964 35238
L21297 35738
" />
<path d="M21297 35238
L20964 35738
" />
<path d="M21488 35547
L21869 35547
" />
</g></g>
</g>
<g style="fill:#000000; fill-opacity:0.0; 
stroke:#000000; stroke-width:60.000000; stroke-opacity:1; 
stroke-linecap:round; stroke-linejoin:round;">
<g >
<path style="fill:#000000; fill-opacity:0.0; 
stroke:#000000; stroke-width:60.000000; stroke-opacity:1; 
stroke-linecap:round; stroke-linejoin:round;fill:none"
d="M 21500.000000,38000.000000
21340.000000,38000.000000
" /> 
</g>
<g style="fill:#000000; fill-opacity:1.0; 
stroke:#000000; stroke-width:60.000000; stroke-opacity:1; 
stroke-linecap:round; stroke-linejoin:round;">
<rect x="21000.000000" y="37950.000000" width="340.000000" height="100.000000" rx="0.000000" />
</g>
<g style="fill:#000000; fill-opacity:0.0; 
stroke:#000000; stroke-width:60.000000; stroke-opacity:1; 
stroke-linecap:round; stroke-linejoin:round;">
<path d="M21500 38000
L23000 38000
" />
<text x="22250.000000" y="37900.000000"
textLength="536.181102" font-size="666.653543" lengthAdjust="spacingAndGlyphs"
text-anchor="middle" opacity="0">1</text>
<g class="stroked-text"><desc>1</desc>
<path d="M22392 37876
L22107 37876
" />
<path d="M22250 37876
L22250 37376
L22202 37447
L22154 37495
L22107 37519
" />
</g><text x="21250.000000" y="36763.346457"
textLength="1893.346457" font-size="666.653543" lengthAdjust="spacingAndGlyphs"
text-anchor="middle" opacity="0">TP10</text>
<g class="stroked-text"><desc>TP10</desc>
<path d="M20380 36239
L20666 36239
" />
<path d="M20523 36739
L20523 36239
" />
<path d="M20833 36739
L20833 36239
L21023 36239
L21071 36263
L21095 36287
L21119 36334
L21119 36406
L21095 36453
L21071 36477
L21023 36501
L20833 36501
" />
<path d="M21595 36739
L21309 36739
" />
<path d="M21452 36739
L21452 36239
L21404 36310
L21357 36358
L21309 36382
" />
<path d="M21904 36239
L21952 36239
L22000 36263
L22023 36287
L22047 36334
L22071 36430
L22071 36549
L22047 36644
L22023 36691
L22000 36715
L21952 36739
L21904 36739
L21857 36715
L21833 36691
L21809 36644
L21785 36549
L21785 36430
L21809 36334
L21833 36287
L21857 36263
L21904 36239
" />
</g><text x="21250.000000" y="37762.125984"
textLength="1679.055118" font-size="666.653543" lengthAdjust="spacingAndGlyphs"
text-anchor="middle" opacity="0">MW0</text>
<g class="stroked-text"><desc>MW0</desc>
<path d="M20559 37738
L20559 37238
L20726 37595
L20892 37238
L20892 37738
" />
<path d="M21083 37238
L21202 37738
L21297 37381
L21392 37738
L21511 37238
" />
<path d="M21797 37238
L21845 37238
L21892 37262
L21916 37285
L21940 37333
L21964 37428
L21964 37547
L21940 37643
L21916 37690
L21892 37714
L21845 37738
L21797 37738
L21750 37714
L21726 37690
L21702 37643
L21678 37547
L21678 37428
L21702 37333
L21726 37285
L21750 37262
L21797 37238
" />
</g></g>
</g>
<g style="fill:#000000; fill-opacity:0.0; 
stroke:#000000; stroke-width:60.000000; stroke-opacity:1; 
stroke-linecap:round; stroke-linejoin:round;">
<g >
<path style="fill:#000000; fill-opacity:0.0; 
stroke:#000000; stroke-width:60.000000; stroke-opacity:1; 
stroke-linecap:round; stroke-linejoin:round;fill:none"
d="M 21500.000000,40000.000000
21340.000000,40000.000000
" /> 
</g>
<g style="fill:#000000; fill-opacity:1.0; 
stroke:#000000; stroke-width:60.000000; stroke-opacity:1; 
stroke-linecap:round; stroke-linejoin:round;">
<rect x="21000.000000" y="39950.000000" width="340.000000" height="100.000000" rx="0.000000" />
</g>
<g style="fill:#000000; fill-opacity:0.0; 
stroke:#000000; stroke-width:60.000000; stroke-opacity:1; 
stroke-linecap:round; stroke-linejoin:round;">
<path d="M21500 40000
L23000 40000
" />
<text x="22250.000000" y="39900.000000"
textLength="536.181102" font-size="666.653543" lengthAdjust="spacingAndGlyphs"
text-anchor="middle" opacity="0">1</text>
<g class="stroked-text"><desc>1</desc>
<path d="M22392 39876
L22107 39876
" />
<path d="M22250 39876
L22250 39376
L22202 39447
L22154 39495
L22107 39519
" />
</g><text x="21250.000000" y="38763.346457"
textLength="1893.346457" font-size="666.653543" lengthAdjust="spacingAndGlyphs"
text-anchor="middle" opacity="0">TP11</text>
<g class="stroked-text"><desc>TP11</desc>
<path d="M20380 38239
L20666 38239
" />
<path d="M20523 38739
L20523 38239
" />
<path d="M20833 38739
L20833 38239
L21023 38239
L21071 38263
L21095 38287
L21119 38334
L21119 38406
L21095 38453
L21071 38477
L21023 38501
L20833 38501
" />
<path d="M21595 38739
L21309 38739
" />
<path d="M21452 38739
L21452 38239
L21404 38310
L21357 38358
L21309 38382
" />
<path d="M22071 38739
L21785 38739
" />
<path d="M21928 38739
L21928 38239
L21880 38310
L21833 38358
L21785 38382
" />
</g><text x="21250.000000" y="39762.125984"
textLength="1679.055118" font-size="666.653543" lengthAdjust="spacingAndGlyphs"
text-anchor="middle" opacity="0">MW1</text>
<g class="stroked-text"><desc>MW1</desc>
<path d="M20559 39738
L20559 39238
L20726 39595
L20892 39238
L20892 39738
" />
<path d="M21083 39238
L21202 39738
L21297 39381
L21392 39738
L21511 39238
" />
<path d="M21964 39738
L21678 39738
" />
<path d="M21821 39738
L21821 39238
L21773 39309
L21726 39357
L21678 39381
" />
</g></g>
</g>
<g style="fill:#000000; fill-opacity:0.0; 
stroke:#000000; stroke-width:60.000000; stroke-opacity:1; 
stroke-linecap:round; stroke-linejoin:round;">
<g >
<path style="fill:#000000; fill-opacity:0.0; 
stroke:#000000; stroke-width:60.000000; stroke-opacity:1; 
stroke-linecap:round; stroke-linejoin:round;fill:none"
d="M 21500.000000,34000.000000
21340.000000,34000.000000
" /> 
</g>
<g style="fill:#000000; fill-opacity:1.0; 
stroke:#000000; stroke-width:60.000000; stroke-opacity:1; 
stroke-linecap:round; stroke-linejoin:round;">
<rect x="21000.000000" y="33950.000000" width="340.000000" height="100.000000" rx="0.000000" />
</g>
<g style="fill:#000000; fill-opacity:0.0; 
stroke:#000000; stroke-width:60.000000; stroke-opacity:1; 
stroke-linecap:round; stroke-linejoin:round;">
<path d="M21500 34000
L23000 34000
" />
<text x="22250.000000" y="33900.000000"
textLength="536.181102" font-size="666.653543" lengthAdjust="spacingAndGlyphs"
text-anchor="middle" opacity="0">1</text>
<g class="stroked-text"><desc>1</desc>
<path d="M22392 33876
L22107 33876
" />
<path d="M22250 33876
L22250 33376
L22202 33447
L22154 33495
L22107 33519
" />
</g><text x="21250.000000" y="32763.346457"
textLength="1417.125984" font-size="666.653543" lengthAdjust="spacingAndGlyphs"
text-anchor="middle" opacity="0">TP8</text>
<g class="stroked-text"><desc>TP8</desc>
<path d="M20619 32239
L20904 32239
" />
<path d="M20761 32739
L20761 32239
" />
<path d="M21071 32739
L21071 32239
L21261 32239
L21309 32263
L21333 32287
L21357 32334
L21357 32406
L21333 32453
L21309 32477
L21261 32501
L21071 32501
" />
<path d="M21642 32453
L21595 32430
L21571 32406
L21547 32358
L21547 32334
L21571 32287
L21595 32263
L21642 32239
L21738 32239
L21785 32263
L21809 32287
L21833 32334
L21833 32358
L21809 32406
L21785 32430
L21738 32453
L21642 32453
L21595 32477
L21571 32501
L21547 32549
L21547 32644
L21571 32691
L21595 32715
L21642 32739
L21738 32739
L21785 32715
L21809 32691
L21833 32644
L21833 32549
L21809 32501
L21785 32477
L21738 32453
" />
</g><text x="21250.000000" y="33762.125984"
textLength="1536.181102" font-size="666.653543" lengthAdjust="spacingAndGlyphs"
text-anchor="middle" opacity="0">TX+</text>
<g class="stroked-text"><desc>TX+</desc>
<path d="M20559 33238
L20845 33238
" />
<path d="M20702 33738
L20702 33238
" />
<path d="M20964 33238
L21297 33738
" />
<path d="M21297 33238
L20964 33738
" />
<path d="M21488 33547
L21869 33547
" />
<path d="M21678 33738
L21678 33357
" />
</g></g>
</g>
<g style="fill:#000000; fill-opacity:0.0; 
stroke:#000000; stroke-width:60.000000; stroke-opacity:1; 
stroke-linecap:round; stroke-linejoin:round;">
<g >
<rect x="35500.000000" y="44950.000000" width="500.000000" height="100.000000" rx="0.000000" />
<rect x="35500.000000" y="43950.000000" width="500.000000" height="100.000000" rx="0.000000" />
<rect x="35500.000000" y="42950.000000" width="500.000000" height="100.000000" rx="0.000000" />
<rect x="35500.000000" y="41950.000000" width="500.000000" height="100.000000" rx="0.000000" />
<rect x="35500.000000" y="40950.000000" width="500.000000" height="100.000000" rx="0.000000" />
<rect x="35500.000000" y="39950.000000" width="500.000000" height="100.000000" rx="0.000000" />
<rect x="35500.000000" y="38950.000000" width="500.000000" height="100.000000" rx="0.000000" />
<rect x="35500.000000" y="37950.000000" width="500.000000" height="100.000000" rx="0.000000" />
<rect x="35500.000000" y="36950.000000" width="500.000000" height="100.000000" rx="0.000000" />
<rect x="35500.000000" y="35950.000000" width="500.000000" height="100.000000" rx="0.000000" />
<rect x="35500.000000" y="34950.000000" width="500.000000" height="100.000000" rx="0.000000" />
<rect x="35500.000000" y="33950.000000" width="500.000000" height="100.000000" rx="0.000000" />
<rect x="35500.000000" y="32950.000000" width="500.000000" height="100.000000" rx="0.000000" />
<rect x="35500.000000" y="31950.000000" width="500.000000" height="100.000000" rx="0.000000" />
<rect x="35500.000000" y="30950.000000" width="500.000000" height="100.000000" rx="0.000000" />
<rect x="35500.000000" y="29950.000000" width="500.000000" height="100.000000" rx="0.000000" />
<rect x="35500.000000" y="28950.000000" width="500.000000" height="100.000000" rx="0.000000" />
<rect x="35500.000000" y="27950.000000" width="500.000000" height="100.000000" rx="0.000000" />
<rect x="35500.000000" y="26950.000000" width="500.000000" height="100.000000" rx="0.000000" />
<rect x="35500.000000" y="25950.000000" width="500.000000" height="100.000000" rx="0.000000" />
</g>
<g style="fill:#000000; fill-opacity:0.0; 
stroke:#000000; stroke-width:100.000000; stroke-opacity:1; 
stroke-linecap:round; stroke-linejoin:round;">
<rect x="35500.000000" y="25500.000000" width="1000.000000" height="20000.000000" rx="0.000000" />
</g>
<g style="fill:#000000; fill-opacity:0.0; 
stroke:#000000; stroke-width:60.000000; stroke-opacity:1; 
stroke-linecap:round; stroke-linejoin:round;">
<path d="M35500 26000
L34000 26000
" />
<text x="34750.000000" y="25900.000000"
textLength="536.181102" font-size="666.653543" lengthAdjust="spacingAndGlyphs"
text-anchor="middle" opacity="0">1</text>
<g class="stroked-text"><desc>1</desc>
<path d="M34892 25876
L34607 25876
" />
<path d="M34750 25876
L34750 25376
L34702 25447
L34654 25495
L34607 25519
" />
</g><path d="M35500 35000
L34000 35000
" />
<text x="34750.000000" y="34900.000000"
textLength="1012.362205" font-size="666.653543" lengthAdjust="spacingAndGlyphs"
text-anchor="middle" opacity="0">10</text>
<g class="stroked-text"><desc>10</desc>
<path d="M34654 34876
L34369 34876
" />
<path d="M34511 34876
L34511 34376
L34464 34447
L34416 34495
L34369 34519
" />
<path d="M34964 34376
L35011 34376
L35059 34400
L35083 34423
L35107 34471
L35130 34566
L35130 34685
L35107 34780
L35083 34828
L35059 34852
L35011 34876
L34964 34876
L34916 34852
L34892 34828
L34869 34780
L34845 34685
L34845 34566
L34869 34471
L34892 34423
L34916 34400
L34964 34376
" />
</g><path d="M35500 36000
L34000 36000
" />
<text x="34750.000000" y="35900.000000"
textLength="1012.362205" font-size="666.653543" lengthAdjust="spacingAndGlyphs"
text-anchor="middle" opacity="0">11</text>
<g class="stroked-text"><desc>11</desc>
<path d="M34654 35876
L34369 35876
" />
<path d="M34511 35876
L34511 35376
L34464 35447
L34416 35495
L34369 35519
" />
<path d="M35130 35876
L34845 35876
" />
<path d="M34988 35876
L34988 35376
L34940 35447
L34892 35495
L34845 35519
" />
</g><path d="M35500 37000
L34000 37000
" />
<text x="34750.000000" y="36900.000000"
textLength="1012.362205" font-size="666.653543" lengthAdjust="spacingAndGlyphs"
text-anchor="middle" opacity="0">12</text>
<g class="stroked-text"><desc>12</desc>
<path d="M34654 36876
L34369 36876
" />
<path d="M34511 36876
L34511 36376
L34464 36447
L34416 36495
L34369 36519
" />
<path d="M34845 36423
L34869 36400
L34916 36376
L35035 36376
L35083 36400
L35107 36423
L35130 36471
L35130 36519
L35107 36590
L34821 36876
L35130 36876
" />
</g><path d="M35500 38000
L34000 38000
" />
<text x="34750.000000" y="37900.000000"
textLength="1012.362205" font-size="666.653543" lengthAdjust="spacingAndGlyphs"
text-anchor="middle" opacity="0">13</text>
<g class="stroked-text"><desc>13</desc>
<path d="M34654 37876
L34369 37876
" />
<path d="M34511 37876
L34511 37376
L34464 37447
L34416 37495
L34369 37519
" />
<path d="M34821 37376
L35130 37376
L34964 37566
L35035 37566
L35083 37590
L35107 37614
L35130 37661
L35130 37780
L35107 37828
L35083 37852
L35035 37876
L34892 37876
L34845 37852
L34821 37828
" />
</g><path d="M35500 39000
L34000 39000
" />
<text x="34750.000000" y="38900.000000"
textLength="1012.362205" font-size="666.653543" lengthAdjust="spacingAndGlyphs"
text-anchor="middle" opacity="0">14</text>
<g class="stroked-text"><desc>14</desc>
<path d="M34654 38876
L34369 38876
" />
<path d="M34511 38876
L34511 38376
L34464 38447
L34416 38495
L34369 38519
" />
<path d="M35083 38542
L35083 38876
" />
<path d="M34964 38352
L34845 38709
L35154 38709
" />
</g><path d="M35500 40000
L34000 40000
" />
<text x="34750.000000" y="39900.000000"
textLength="1012.362205" font-size="666.653543" lengthAdjust="spacingAndGlyphs"
text-anchor="middle" opacity="0">15</text>
<g class="stroked-text"><desc>15</desc>
<path d="M34654 39876
L34369 39876
" />
<path d="M34511 39876
L34511 39376
L34464 39447
L34416 39495
L34369 39519
" />
<path d="M35107 39376
L34869 39376
L34845 39614
L34869 39590
L34916 39566
L35035 39566
L35083 39590
L35107 39614
L35130 39661
L35130 39780
L35107 39828
L35083 39852
L35035 39876
L34916 39876
L34869 39852
L34845 39828
" />
</g><path d="M35500 41000
L34000 41000
" />
<text x="34750.000000" y="40900.000000"
textLength="1012.362205" font-size="666.653543" lengthAdjust="spacingAndGlyphs"
text-anchor="middle" opacity="0">16</text>
<g class="stroked-text"><desc>16</desc>
<path d="M34654 40876
L34369 40876
" />
<path d="M34511 40876
L34511 40376
L34464 40447
L34416 40495
L34369 40519
" />
<path d="M35083 40376
L34988 40376
L34940 40400
L34916 40423
L34869 40495
L34845 40590
L34845 40780
L34869 40828
L34892 40852
L34940 40876
L35035 40876
L35083 40852
L35107 40828
L35130 40780
L35130 40661
L35107 40614
L35083 40590
L35035 40566
L34940 40566
L34892 40590
L34869 40614
L34845 40661
" />
</g><path d="M35500 42000
L34000 42000
" />
<text x="34750.000000" y="41900.000000"
textLength="1012.362205" font-size="666.653543" lengthAdjust="spacingAndGlyphs"
text-anchor="middle" opacity="0">17</text>
<g class="stroked-text"><desc>17</desc>
<path d="M34654 41876
L34369 41876
" />
<path d="M34511 41876
L34511 41376
L34464 41447
L34416 41495
L34369 41519
" />
<path d="M34821 41376
L35154 41376
L34940 41876
" />
</g><path d="M35500 43000
L34000 43000
" />
<text x="34750.000000" y="42900.000000"
textLength="1012.362205" font-size="666.653543" lengthAdjust="spacingAndGlyphs"
text-anchor="middle" opacity="0">18</text>
<g class="stroked-text"><desc>18</desc>
<path d="M34654 42876
L34369 42876
" />
<path d="M34511 42876
L34511 42376
L34464 42447
L34416 42495
L34369 42519
" />
<path d="M34940 42590
L34892 42566
L34869 42542
L34845 42495
L34845 42471
L34869 42423
L34892 42400
L34940 42376
L35035 42376
L35083 42400
L35107 42423
L35130 42471
L35130 42495
L35107 42542
L35083 42566
L35035 42590
L34940 42590
L34892 42614
L34869 42638
L34845 42685
L34845 42780
L34869 42828
L34892 42852
L34940 42876
L35035 42876
L35083 42852
L35107 42828
L35130 42780
L35130 42685
L35107 42638
L35083 42614
L35035 42590
" />
</g><path d="M35500 44000
L34000 44000
" />
<text x="34750.000000" y="43900.000000"
textLength="1012.362205" font-size="666.653543" lengthAdjust="spacingAndGlyphs"
text-anchor="middle" opacity="0">19</text>
<g class="stroked-text"><desc>19</desc>
<path d="M34654 43876
L34369 43876
" />
<path d="M34511 43876
L34511 43376
L34464 43447
L34416 43495
L34369 43519
" />
<path d="M34892 43876
L34988 43876
L35035 43852
L35059 43828
L35107 43757
L35130 43661
L35130 43471
L35107 43423
L35083 43400
L35035 43376
L34940 43376
L34892 43400
L34869 43423
L34845 43471
L34845 43590
L34869 43638
L34892 43661
L34940 43685
L35035 43685
L35083 43661
L35107 43638
L35130 43590
" />
</g><path d="M35500 27000
L34000 27000
" />
<text x="34750.000000" y="26900.000000"
textLength="536.181102" font-size="666.653543" lengthAdjust="spacingAndGlyphs"
text-anchor="middle" opacity="0">2</text>
<g class="stroked-text"><desc>2</desc>
<path d="M34607 26423
L34630 26400
L34678 26376
L34797 26376
L34845 26400
L34869 26423
L34892 26471
L34892 26519
L34869 26590
L34583 26876
L34892 26876
" />
</g><path d="M35500 45000
L34000 45000
" />
<text x="34750.000000" y="44900.000000"
textLength="1012.362205" font-size="666.653543" lengthAdjust="spacingAndGlyphs"
text-anchor="middle" opacity="0">20</text>
<g class="stroked-text"><desc>20</desc>
<path d="M34369 44423
L34392 44400
L34440 44376
L34559 44376
L34607 44400
L34630 44423
L34654 44471
L34654 44519
L34630 44590
L34345 44876
L34654 44876
" />
<path d="M34964 44376
L35011 44376
L35059 44400
L35083 44423
L35107 44471
L35130 44566
L35130 44685
L35107 44780
L35083 44828
L35059 44852
L35011 44876
L34964 44876
L34916 44852
L34892 44828
L34869 44780
L34845 44685
L34845 44566
L34869 44471
L34892 44423
L34916 44400
L34964 44376
" />
</g><path d="M35500 28000
L34000 28000
" />
<text x="34750.000000" y="27900.000000"
textLength="536.181102" font-size="666.653543" lengthAdjust="spacingAndGlyphs"
text-anchor="middle" opacity="0">3</text>
<g class="stroked-text"><desc>3</desc>
<path d="M34583 27376
L34892 27376
L34726 27566
L34797 27566
L34845 27590
L34869 27614
L34892 27661
L34892 27780
L34869 27828
L34845 27852
L34797 27876
L34654 27876
L34607 27852
L34583 27828
" />
</g><path d="M35500 29000
L34000 29000
" />
<text x="34750.000000" y="28900.000000"
textLength="536.181102" font-size="666.653543" lengthAdjust="spacingAndGlyphs"
text-anchor="middle" opacity="0">4</text>
<g class="stroked-text"><desc>4</desc>
<path d="M34845 28542
L34845 28876
" />
<path d="M34726 28352
L34607 28709
L34916 28709
" />
</g><path d="M35500 30000
L34000 30000
" />
<text x="34750.000000" y="29900.000000"
textLength="536.181102" font-size="666.653543" lengthAdjust="spacingAndGlyphs"
text-anchor="middle" opacity="0">5</text>
<g class="stroked-text"><desc>5</desc>
<path d="M34869 29376
L34630 29376
L34607 29614
L34630 29590
L34678 29566
L34797 29566
L34845 29590
L34869 29614
L34892 29661
L34892 29780
L34869 29828
L34845 29852
L34797 29876
L34678 29876
L34630 29852
L34607 29828
" />
</g><path d="M35500 31000
L34000 31000
" />
<text x="34750.000000" y="30900.000000"
textLength="536.181102" font-size="666.653543" lengthAdjust="spacingAndGlyphs"
text-anchor="middle" opacity="0">6</text>
<g class="stroked-text"><desc>6</desc>
<path d="M34845 30376
L34750 30376
L34702 30400
L34678 30423
L34630 30495
L34607 30590
L34607 30780
L34630 30828
L34654 30852
L34702 30876
L34797 30876
L34845 30852
L34869 30828
L34892 30780
L34892 30661
L34869 30614
L34845 30590
L34797 30566
L34702 30566
L34654 30590
L34630 30614
L34607 30661
" />
</g><path d="M35500 32000
L34000 32000
" />
<text x="34750.000000" y="31900.000000"
textLength="536.181102" font-size="666.653543" lengthAdjust="spacingAndGlyphs"
text-anchor="middle" opacity="0">7</text>
<g class="stroked-text"><desc>7</desc>
<path d="M34583 31376
L34916 31376
L34702 31876
" />
</g><path d="M35500 33000
L34000 33000
" />
<text x="34750.000000" y="32900.000000"
textLength="536.181102" font-size="666.653543" lengthAdjust="spacingAndGlyphs"
text-anchor="middle" opacity="0">8</text>
<g class="stroked-text"><desc>8</desc>
<path d="M34702 32590
L34654 32566
L34630 32542
L34607 32495
L34607 32471
L34630 32423
L34654 32400
L34702 32376
L34797 32376
L34845 32400
L34869 32423
L34892 32471
L34892 32495
L34869 32542
L34845 32566
L34797 32590
L34702 32590
L34654 32614
L34630 32638
L34607 32685
L34607 32780
L34630 32828
L34654 32852
L34702 32876
L34797 32876
L34845 32852
L34869 32828
L34892 32780
L34892 32685
L34869 32638
L34845 32614
L34797 32590
" />
</g><path d="M35500 34000
L34000 34000
" />
<text x="34750.000000" y="33900.000000"
textLength="536.181102" font-size="666.653543" lengthAdjust="spacingAndGlyphs"
text-anchor="middle" opacity="0">9</text>
<g class="stroked-text"><desc>9</desc>
<path d="M34654 33876
L34750 33876
L34797 33852
L34821 33828
L34869 33757
L34892 33661
L34892 33471
L34869 33423
L34845 33400
L34797 33376
L34702 33376
L34654 33400
L34630 33423
L34607 33471
L34607 33590
L34630 33638
L34654 33661
L34702 33685
L34797 33685
L34845 33661
L34869 33638
L34892 33590
" />
</g><text x="37259.803150" y="35421.338583"
textLength="917.125984" font-size="666.653543" lengthAdjust="spacingAndGlyphs"
text-anchor="middle" opacity="0">J1</text>
<g class="stroked-text"><desc>J1</desc>
<path d="M37093 34897
L37093 35254
L37069 35326
L37021 35373
L36950 35397
L36902 35397
" />
<path d="M37593 35397
L37307 35397
" />
<path d="M37450 35397
L37450 34897
L37402 34968
L37355 35016
L37307 35040
" />
</g><text x="39105.078740" y="36420.118110"
textLength="4607.637795" font-size="666.653543" lengthAdjust="spacingAndGlyphs"
text-anchor="middle" opacity="0">Conn_01x20</text>
<g class="stroked-text"><desc>Conn_01x20</desc>
<path d="M37236 36348
L37212 36372
L37140 36396
L37093 36396
L37021 36372
L36974 36324
L36950 36277
L36926 36182
L36926 36110
L36950 36015
L36974 35967
L37021 35920
L37093 35896
L37140 35896
L37212 35920
L37236 35943
" />
<path d="M37521 36396
L37474 36372
L37450 36348
L37426 36301
L37426 36158
L37450 36110
L37474 36086
L37521 36062
L37593 36062
L37640 36086
L37664 36110
L37688 36158
L37688 36301
L37664 36348
L37640 36372
L37593 36396
L37521 36396
" />
<path d="M37902 36062
L37902 36396
" />
<path d="M37902 36110
L37926 36086
L37974 36062
L38045 36062
L38093 36086
L38116 36134
L38116 36396
" />
<path d="M38355 36062
L38355 36396
" />
<path d="M38355 36110
L38378 36086
L38426 36062
L38497 36062
L38545 36086
L38569 36134
L38569 36396
" />
<path d="M38688 36443
L39069 36443
" />
<path d="M39283 35896
L39331 35896
L39378 35920
L39402 35943
L39426 35991
L39450 36086
L39450 36205
L39426 36301
L39402 36348
L39378 36372
L39331 36396
L39283 36396
L39236 36372
L39212 36348
L39188 36301
L39164 36205
L39164 36086
L39188 35991
L39212 35943
L39236 35920
L39283 35896
" />
<path d="M39926 36396
L39640 36396
" />
<path d="M39783 36396
L39783 35896
L39736 35967
L39688 36015
L39640 36039
" />
<path d="M40093 36396
L40355 36062
" />
<path d="M40093 36062
L40355 36396
" />
<path d="M40521 35943
L40545 35920
L40593 35896
L40712 35896
L40759 35920
L40783 35943
L40807 35991
L40807 36039
L40783 36110
L40497 36396
L40807 36396
" />
<path d="M41116 35896
L41164 35896
L41212 35920
L41236 35943
L41259 35991
L41283 36086
L41283 36205
L41259 36301
L41236 36348
L41212 36372
L41164 36396
L41116 36396
L41069 36372
L41045 36348
L41021 36301
L40997 36205
L40997 36086
L41021 35991
L41045 35943
L41069 35920
L41116 35896
" />
</g></g>
</g>
<g style="fill:#000000; fill-opacity:0.0; 
stroke:#000000; stroke-width:60.000000; stroke-opacity:1; 
stroke-linecap:round; stroke-linejoin:round;">
<g >
<path style="fill:#000000; fill-opacity:0.0; 
stroke:#000000; stroke-width:60.000000; stroke-opacity:1; 
stroke-linecap:round; stroke-linejoin:round;fill:none"
d="M 32000.000000,46000.000000
32000.000000,46500.000000
31500.000000,46500.000000
32000.000000,47000.000000
32500.000000,46500.000000
32000.000000,46500.000000
" /> 
</g>
</g>
<g style="fill:#000000; fill-opacity:0.0; 
stroke:#000000; stroke-width:60.000000; stroke-opacity:1; 
stroke-linecap:round; stroke-linejoin:round;">
<path d="M32000 38000
L32000 36000
" />
<path d="M25500 40000
L23000 40000
" />
<path d="M34000 37000
L27250 37000
" />
<path d="M27250 37000
L27250 38000
" />
<path d="M23000 50250
L24000 50250
" />
<path d="M24000 48000
L24000 50250
" />
<path d="M24000 51000
L24000 50250
" />
<path d="M34000 38000
L32000 38000
" />
<path d="M27250 42000
L23000 42000
" />
<path d="M34000 39000
L25500 39000
" />
<path d="M25500 39000
L25500 40000
" />
<path d="M23000 48000
L24000 48000
" />
<path d="M34000 45000
L29000 45000
" />
<path d="M29000 45000
L29000 46000
" />
<path d="M32000 44000
L34000 44000
" />
<path d="M32000 46000
L32000 44000
" />
<path d="M34000 40000
L32000 40000
" />
<path d="M32000 44000
L32000 42000
" />
<path d="M26500 36000
L26500 35000
" />
<path d="M26500 35000
L34000 35000
" />
<path d="M34000 36000
L32000 36000
" />
<path d="M27250 38000
L23000 38000
" />
<path d="M23000 36000
L26500 36000
" />
<path d="M14500 28500
L15500 28500
" />
<path d="M15500 32000
L15500 28500
" />
<path d="M34000 41000
L27250 41000
" />
<path d="M15500 32000
L15500 35500
" />
<path d="M14500 35500
L15500 35500
" />
<path d="M32000 36000
L32000 31000
" />
<path d="M15500 32000
L14500 32000
" />
<path d="M15500 38000
L15500 35500
" />
<path d="M29000 46000
L23000 46000
" />
<path d="M28500 44000
L23000 44000
" />
<path d="M26500 33000
L34000 33000
" />
<path d="M28500 28000
L28500 30000
" />
<path d="M32000 29000
L34000 29000
" />
<path d="M23000 20000
L33000 20000
" />
<path d="M33000 20000
L33000 26000
" />
<path d="M32250 22000
L23000 22000
" />
<path d="M23000 24000
L31250 24000
" />
<path d="M23000 26000
L24000 26000
" />
<path d="M33000 26000
L34000 26000
" />
<path d="M34000 27000
L32250 27000
" />
<path d="M31250 28000
L34000 28000
" />
<path d="M34000 31000
L32000 31000
" />
<path d="M32000 31000
L32000 29000
" />
<path d="M34000 32000
L27750 32000
" />
<path d="M27750 32000
L27750 30000
" />
<path d="M26500 32000
L26500 33000
" />
<path d="M28500 43000
L28500 44000
" />
<path d="M23000 28000
L28500 28000
" />
<path d="M28500 30000
L34000 30000
" />
<path d="M27750 30000
L23000 30000
" />
<path d="M23000 32000
L26500 32000
" />
<path d="M23000 34000
L34000 34000
" />
<path d="M32000 42000
L32000 40000
" />
<path d="M32250 27000
L32250 22000
" />
<path d="M15500 25000
L15500 28500
" />
<path d="M15500 25000
L14500 25000
" />
<path d="M24000 26000
L24000 48000
" />
<path d="M32000 40000
L32000 38000
" />
<path d="M34000 43000
L28500 43000
" />
<path d="M34000 42000
L32000 42000
" />
<path d="M27250 41000
L27250 42000
" />
<path d="M31250 24000
L31250 28000
" />
<text x="21250.000000" y="30763.346457"
textLength="1417.125984" font-size="666.653543" lengthAdjust="spacingAndGlyphs"
text-anchor="middle" opacity="0">TP7</text>
<g class="stroked-text"><desc>TP7</desc>
<path d="M20619 30239
L20904 30239
" />
<path d="M20761 30739
L20761 30239
" />
<path d="M21071 30739
L21071 30239
L21261 30239
L21309 30263
L21333 30287
L21357 30334
L21357 30406
L21333 30453
L21309 30477
L21261 30501
L21071 30501
" />
<path d="M21523 30239
L21857 30239
L21642 30739
" />
</g><text x="21250.000000" y="31762.125984"
textLength="1655.236220" font-size="666.653543" lengthAdjust="spacingAndGlyphs"
text-anchor="middle" opacity="0">RX-</text>
<g class="stroked-text"><desc>RX-</desc>
<path d="M20857 31738
L20690 31500
" />
<path d="M20571 31738
L20571 31238
L20761 31238
L20809 31262
L20833 31285
L20857 31333
L20857 31404
L20833 31452
L20809 31476
L20761 31500
L20571 31500
" />
<path d="M21023 31238
L21357 31738
" />
<path d="M21357 31238
L21023 31738
" />
<path d="M21547 31547
L21928 31547
" />
</g><path d="M21500 32000
L23000 32000
" />
<text x="22250.000000" y="31900.000000"
textLength="536.181102" font-size="666.653543" lengthAdjust="spacingAndGlyphs"
text-anchor="middle" opacity="0">1</text>
<g class="stroked-text"><desc>1</desc>
<path d="M22392 31876
L22107 31876
" />
<path d="M22250 31876
L22250 31376
L22202 31447
L22154 31495
L22107 31519
" />
</g><text x="21250.000000" y="28763.346457"
textLength="1417.125984" font-size="666.653543" lengthAdjust="spacingAndGlyphs"
text-anchor="middle" opacity="0">TP6</text>
<g class="stroked-text"><desc>TP6</desc>
<path d="M20619 28239
L20904 28239
" />
<path d="M20761 28739
L20761 28239
" />
<path d="M21071 28739
L21071 28239
L21261 28239
L21309 28263
L21333 28287
L21357 28334
L21357 28406
L21333 28453
L21309 28477
L21261 28501
L21071 28501
" />
<path d="M21785 28239
L21690 28239
L21642 28263
L21619 28287
L21571 28358
L21547 28453
L21547 28644
L21571 28691
L21595 28715
L21642 28739
L21738 28739
L21785 28715
L21809 28691
L21833 28644
L21833 28525
L21809 28477
L21785 28453
L21738 28430
L21642 28430
L21595 28453
L21571 28477
L21547 28525
" />
</g><text x="21250.000000" y="29762.125984"
textLength="1655.236220" font-size="666.653543" lengthAdjust="spacingAndGlyphs"
text-anchor="middle" opacity="0">RX+</text>
<g class="stroked-text"><desc>RX+</desc>
<path d="M20857 29738
L20690 29500
" />
<path d="M20571 29738
L20571 29238
L20761 29238
L20809 29262
L20833 29285
L20857 29333
L20857 29404
L20833 29452
L20809 29476
L20761 29500
L20571 29500
" />
<path d="M21023 29238
L21357 29738
" />
<path d="M21357 29238
L21023 29738
" />
<path d="M21547 29547
L21928 29547
" />
<path d="M21738 29738
L21738 29357
" />
</g><path d="M21500 30000
L23000 30000
" />
<text x="22250.000000" y="29900.000000"
textLength="536.181102" font-size="666.653543" lengthAdjust="spacingAndGlyphs"
text-anchor="middle" opacity="0">1</text>
<g class="stroked-text"><desc>1</desc>
<path d="M22392 29876
L22107 29876
" />
<path d="M22250 29876
L22250 29376
L22202 29447
L22154 29495
L22107 29519
" />
</g><text x="21250.000000" y="26763.346457"
textLength="1417.125984" font-size="666.653543" lengthAdjust="spacingAndGlyphs"
text-anchor="middle" opacity="0">TP5</text>
<g class="stroked-text"><desc>TP5</desc>
<path d="M20619 26239
L20904 26239
" />
<path d="M20761 26739
L20761 26239
" />
<path d="M21071 26739
L21071 26239
L21261 26239
L21309 26263
L21333 26287
L21357 26334
L21357 26406
L21333 26453
L21309 26477
L21261 26501
L21071 26501
" />
<path d="M21809 26239
L21571 26239
L21547 26477
L21571 26453
L21619 26430
L21738 26430
L21785 26453
L21809 26477
L21833 26525
L21833 26644
L21809 26691
L21785 26715
L21738 26739
L21619 26739
L21571 26715
L21547 26691
" />
</g><text x="21250.000000" y="27762.125984"
textLength="2369.527559" font-size="666.653543" lengthAdjust="spacingAndGlyphs"
text-anchor="middle" opacity="0">+3.3D</text>
<g class="stroked-text"><desc>+3.3D</desc>
<path d="M20214 27547
L20595 27547
" />
<path d="M20404 27738
L20404 27357
" />
<path d="M20785 27238
L21095 27238
L20928 27428
L21000 27428
L21047 27452
L21071 27476
L21095 27524
L21095 27643
L21071 27690
L21047 27714
L21000 27738
L20857 27738
L20809 27714
L20785 27690
" />
<path d="M21309 27690
L21333 27714
L21309 27738
L21285 27714
L21309 27690
L21309 27738
" />
<path d="M21500 27238
L21809 27238
L21642 27428
L21714 27428
L21761 27452
L21785 27476
L21809 27524
L21809 27643
L21785 27690
L21761 27714
L21714 27738
L21571 27738
L21523 27714
L21500 27690
" />
<path d="M22023 27738
L22023 27238
L22142 27238
L22214 27262
L22261 27309
L22285 27357
L22309 27452
L22309 27524
L22285 27619
L22261 27666
L22214 27714
L22142 27738
L22023 27738
" />
</g><path d="M21500 28000
L23000 28000
" />
<text x="22250.000000" y="27900.000000"
textLength="536.181102" font-size="666.653543" lengthAdjust="spacingAndGlyphs"
text-anchor="middle" opacity="0">1</text>
<g class="stroked-text"><desc>1</desc>
<path d="M22392 27876
L22107 27876
" />
<path d="M22250 27876
L22250 27376
L22202 27447
L22154 27495
L22107 27519
" />
</g><text x="21250.000000" y="18763.346457"
textLength="1417.125984" font-size="666.653543" lengthAdjust="spacingAndGlyphs"
text-anchor="middle" opacity="0">TP1</text>
<g class="stroked-text"><desc>TP1</desc>
<path d="M20619 18239
L20904 18239
" />
<path d="M20761 18739
L20761 18239
" />
<path d="M21071 18739
L21071 18239
L21261 18239
L21309 18263
L21333 18287
L21357 18334
L21357 18406
L21333 18453
L21309 18477
L21261 18501
L21071 18501
" />
<path d="M21833 18739
L21547 18739
" />
<path d="M21690 18739
L21690 18239
L21642 18310
L21595 18358
L21547 18382
" />
</g><text x="21250.000000" y="19762.125984"
textLength="1679.055118" font-size="666.653543" lengthAdjust="spacingAndGlyphs"
text-anchor="middle" opacity="0">VINF</text>
<g class="stroked-text"><desc>VINF</desc>
<path d="M20488 19238
L20654 19738
L20821 19238
" />
<path d="M20988 19738
L20988 19238
" />
<path d="M21226 19738
L21226 19238
L21511 19738
L21511 19238
" />
<path d="M21916 19476
L21750 19476
" />
<path d="M21750 19738
L21750 19238
L21988 19238
" />
</g><path d="M21500 20000
L23000 20000
" />
<text x="22250.000000" y="19900.000000"
textLength="536.181102" font-size="666.653543" lengthAdjust="spacingAndGlyphs"
text-anchor="middle" opacity="0">1</text>
<g class="stroked-text"><desc>1</desc>
<path d="M22392 19876
L22107 19876
" />
<path d="M22250 19876
L22250 19376
L22202 19447
L22154 19495
L22107 19519
" />
</g><text x="21250.000000" y="22763.346457"
textLength="1417.125984" font-size="666.653543" lengthAdjust="spacingAndGlyphs"
text-anchor="middle" opacity="0">TP3</text>
<g class="stroked-text"><desc>TP3</desc>
<path d="M20619 22239
L20904 22239
" />
<path d="M20761 22739
L20761 22239
" />
<path d="M21071 22739
L21071 22239
L21261 22239
L21309 22263
L21333 22287
L21357 22334
L21357 22406
L21333 22453
L21309 22477
L21261 22501
L21071 22501
" />
<path d="M21523 22239
L21833 22239
L21666 22430
L21738 22430
L21785 22453
L21809 22477
L21833 22525
L21833 22644
L21809 22691
L21785 22715
L21738 22739
L21595 22739
L21547 22715
L21523 22691
" />
</g><text x="21250.000000" y="23762.125984"
textLength="1155.236220" font-size="666.653543" lengthAdjust="spacingAndGlyphs"
text-anchor="middle" opacity="0">+5</text>
<g class="stroked-text"><desc>+5</desc>
<path d="M20821 23547
L21202 23547
" />
<path d="M21011 23738
L21011 23357
" />
<path d="M21678 23238
L21440 23238
L21416 23476
L21440 23452
L21488 23428
L21607 23428
L21654 23452
L21678 23476
L21702 23524
L21702 23643
L21678 23690
L21654 23714
L21607 23738
L21488 23738
L21440 23714
L21416 23690
" />
</g><path d="M21500 24000
L23000 24000
" />
<text x="22250.000000" y="23900.000000"
textLength="536.181102" font-size="666.653543" lengthAdjust="spacingAndGlyphs"
text-anchor="middle" opacity="0">1</text>
<g class="stroked-text"><desc>1</desc>
<path d="M22392 23876
L22107 23876
" />
<path d="M22250 23876
L22250 23376
L22202 23447
L22154 23495
L22107 23519
" />
</g><text x="21250.000000" y="24763.346457"
textLength="1417.125984" font-size="666.653543" lengthAdjust="spacingAndGlyphs"
text-anchor="middle" opacity="0">TP4</text>
<g class="stroked-text"><desc>TP4</desc>
<path d="M20619 24239
L20904 24239
" />
<path d="M20761 24739
L20761 24239
" />
<path d="M21071 24739
L21071 24239
L21261 24239
L21309 24263
L21333 24287
L21357 24334
L21357 24406
L21333 24453
L21309 24477
L21261 24501
L21071 24501
" />
<path d="M21785 24406
L21785 24739
" />
<path d="M21666 24215
L21547 24572
L21857 24572
" />
</g><text x="21250.000000" y="25762.125984"
textLength="1583.818898" font-size="666.653543" lengthAdjust="spacingAndGlyphs"
text-anchor="middle" opacity="0">GND</text>
<g class="stroked-text"><desc>GND</desc>
<path d="M20869 25262
L20821 25238
L20750 25238
L20678 25262
L20630 25309
L20607 25357
L20583 25452
L20583 25524
L20607 25619
L20630 25666
L20678 25714
L20750 25738
L20797 25738
L20869 25714
L20892 25690
L20892 25524
L20797 25524
" />
<path d="M21107 25738
L21107 25238
L21392 25738
L21392 25238
" />
<path d="M21630 25738
L21630 25238
L21750 25238
L21821 25262
L21869 25309
L21892 25357
L21916 25452
L21916 25524
L21892 25619
L21869 25666
L21821 25714
L21750 25738
L21630 25738
" />
</g><path d="M21500 26000
L23000 26000
" />
<text x="22250.000000" y="25900.000000"
textLength="536.181102" font-size="666.653543" lengthAdjust="spacingAndGlyphs"
text-anchor="middle" opacity="0">1</text>
<g class="stroked-text"><desc>1</desc>
<path d="M22392 25876
L22107 25876
" />
<path d="M22250 25876
L22250 25376
L22202 25447
L22154 25495
L22107 25519
" />
</g><text x="21250.000000" y="20763.346457"
textLength="1417.125984" font-size="666.653543" lengthAdjust="spacingAndGlyphs"
text-anchor="middle" opacity="0">TP2</text>
<g class="stroked-text"><desc>TP2</desc>
<path d="M20619 20239
L20904 20239
" />
<path d="M20761 20739
L20761 20239
" />
<path d="M21071 20739
L21071 20239
L21261 20239
L21309 20263
L21333 20287
L21357 20334
L21357 20406
L21333 20453
L21309 20477
L21261 20501
L21071 20501
" />
<path d="M21547 20287
L21571 20263
L21619 20239
L21738 20239
L21785 20263
L21809 20287
L21833 20334
L21833 20382
L21809 20453
L21523 20739
L21833 20739
" />
</g><text x="21250.000000" y="21762.125984"
textLength="1631.417323" font-size="666.653543" lengthAdjust="spacingAndGlyphs"
text-anchor="middle" opacity="0">+13</text>
<g class="stroked-text"><desc>+13</desc>
<path d="M20583 21547
L20964 21547
" />
<path d="M20773 21738
L20773 21357
" />
<path d="M21464 21738
L21178 21738
" />
<path d="M21321 21738
L21321 21238
L21273 21309
L21226 21357
L21178 21381
" />
<path d="M21630 21238
L21940 21238
L21773 21428
L21845 21428
L21892 21452
L21916 21476
L21940 21524
L21940 21643
L21916 21690
L21892 21714
L21845 21738
L21702 21738
L21654 21714
L21630 21690
" />
</g><path d="M21500 22000
L23000 22000
" />
<text x="22250.000000" y="21900.000000"
textLength="536.181102" font-size="666.653543" lengthAdjust="spacingAndGlyphs"
text-anchor="middle" opacity="0">1</text>
<g class="stroked-text"><desc>1</desc>
<path d="M22392 21876
L22107 21876
" />
<path d="M22250 21876
L22250 21376
L22202 21447
L22154 21495
L22107 21519
" />
</g><text x="21250.000000" y="46763.346457"
textLength="1893.346457" font-size="666.653543" lengthAdjust="spacingAndGlyphs"
text-anchor="middle" opacity="0">TP15</text>
<g class="stroked-text"><desc>TP15</desc>
<path d="M20380 46239
L20666 46239
" />
<path d="M20523 46739
L20523 46239
" />
<path d="M20833 46739
L20833 46239
L21023 46239
L21071 46263
L21095 46287
L21119 46334
L21119 46406
L21095 46453
L21071 46477
L21023 46501
L20833 46501
" />
<path d="M21595 46739
L21309 46739
" />
<path d="M21452 46739
L21452 46239
L21404 46310
L21357 46358
L21309 46382
" />
<path d="M22047 46239
L21809 46239
L21785 46477
L21809 46453
L21857 46430
L21976 46430
L22023 46453
L22047 46477
L22071 46525
L22071 46644
L22047 46691
L22023 46715
L21976 46739
L21857 46739
L21809 46715
L21785 46691
" />
</g><text x="21250.000000" y="47762.125984"
textLength="1583.818898" font-size="666.653543" lengthAdjust="spacingAndGlyphs"
text-anchor="middle" opacity="0">GND</text>
<g class="stroked-text"><desc>GND</desc>
<path d="M20869 47262
L20821 47238
L20750 47238
L20678 47262
L20630 47309
L20607 47357
L20583 47452
L20583 47524
L20607 47619
L20630 47666
L20678 47714
L20750 47738
L20797 47738
L20869 47714
L20892 47690
L20892 47524
L20797 47524
" />
<path d="M21107 47738
L21107 47238
L21392 47738
L21392 47238
" />
<path d="M21630 47738
L21630 47238
L21750 47238
L21821 47262
L21869 47309
L21892 47357
L21916 47452
L21916 47524
L21892 47619
L21869 47666
L21821 47714
L21750 47738
L21630 47738
" />
</g><path d="M21500 48000
L23000 48000
" />
<text x="22250.000000" y="47900.000000"
textLength="536.181102" font-size="666.653543" lengthAdjust="spacingAndGlyphs"
text-anchor="middle" opacity="0">1</text>
<g class="stroked-text"><desc>1</desc>
<path d="M22392 47876
L22107 47876
" />
<path d="M22250 47876
L22250 47376
L22202 47447
L22154 47495
L22107 47519
" />
</g><text x="21250.000000" y="40763.346457"
textLength="1893.346457" font-size="666.653543" lengthAdjust="spacingAndGlyphs"
text-anchor="middle" opacity="0">TP12</text>
<g class="stroked-text"><desc>TP12</desc>
<path d="M20380 40239
L20666 40239
" />
<path d="M20523 40739
L20523 40239
" />
<path d="M20833 40739
L20833 40239
L21023 40239
L21071 40263
L21095 40287
L21119 40334
L21119 40406
L21095 40453
L21071 40477
L21023 40501
L20833 40501
" />
<path d="M21595 40739
L21309 40739
" />
<path d="M21452 40739
L21452 40239
L21404 40310
L21357 40358
L21309 40382
" />
<path d="M21785 40287
L21809 40263
L21857 40239
L21976 40239
L22023 40263
L22047 40287
L22071 40334
L22071 40382
L22047 40453
L21761 40739
L22071 40739
" />
</g><text x="21250.000000" y="41762.125984"
textLength="2393.346457" font-size="666.653543" lengthAdjust="spacingAndGlyphs"
text-anchor="middle" opacity="0">AOUT0</text>
<g class="stroked-text"><desc>AOUT0</desc>
<path d="M20178 41595
L20416 41595
" />
<path d="M20130 41738
L20297 41238
L20464 41738
" />
<path d="M20726 41238
L20821 41238
L20869 41262
L20916 41309
L20940 41404
L20940 41571
L20916 41666
L20869 41714
L20821 41738
L20726 41738
L20678 41714
L20630 41666
L20607 41571
L20607 41404
L20630 41309
L20678 41262
L20726 41238
" />
<path d="M21154 41238
L21154 41643
L21178 41690
L21202 41714
L21250 41738
L21345 41738
L21392 41714
L21416 41690
L21440 41643
L21440 41238
" />
<path d="M21607 41238
L21892 41238
" />
<path d="M21750 41738
L21750 41238
" />
<path d="M22154 41238
L22202 41238
L22250 41262
L22273 41285
L22297 41333
L22321 41428
L22321 41547
L22297 41643
L22273 41690
L22250 41714
L22202 41738
L22154 41738
L22107 41714
L22083 41690
L22059 41643
L22035 41547
L22035 41428
L22059 41333
L22083 41285
L22107 41262
L22154 41238
" />
</g><path d="M21500 42000
L23000 42000
" />
<text x="22250.000000" y="41900.000000"
textLength="536.181102" font-size="666.653543" lengthAdjust="spacingAndGlyphs"
text-anchor="middle" opacity="0">1</text>
<g class="stroked-text"><desc>1</desc>
<path d="M22392 41876
L22107 41876
" />
<path d="M22250 41876
L22250 41376
L22202 41447
L22154 41495
L22107 41519
" />
</g><text x="21250.000000" y="44763.346457"
textLength="1893.346457" font-size="666.653543" lengthAdjust="spacingAndGlyphs"
text-anchor="middle" opacity="0">TP14</text>
<g class="stroked-text"><desc>TP14</desc>
<path d="M20380 44239
L20666 44239
" />
<path d="M20523 44739
L20523 44239
" />
<path d="M20833 44739
L20833 44239
L21023 44239
L21071 44263
L21095 44287
L21119 44334
L21119 44406
L21095 44453
L21071 44477
L21023 44501
L20833 44501
" />
<path d="M21595 44739
L21309 44739
" />
<path d="M21452 44739
L21452 44239
L21404 44310
L21357 44358
L21309 44382
" />
<path d="M22023 44406
L22023 44739
" />
<path d="M21904 44215
L21785 44572
L22095 44572
" />
</g><text x="21250.000000" y="45762.125984"
textLength="1798.110236" font-size="666.653543" lengthAdjust="spacingAndGlyphs"
text-anchor="middle" opacity="0">+VIn</text>
<g class="stroked-text"><desc>+VIn</desc>
<path d="M20500 45547
L20880 45547
" />
<path d="M20690 45738
L20690 45357
" />
<path d="M21047 45238
L21214 45738
L21380 45238
" />
<path d="M21547 45738
L21547 45238
" />
<path d="M21785 45404
L21785 45738
" />
<path d="M21785 45452
L21809 45428
L21857 45404
L21928 45404
L21976 45428
L22000 45476
L22000 45738
" />
</g><path d="M21500 46000
L23000 46000
" />
<text x="22250.000000" y="45900.000000"
textLength="536.181102" font-size="666.653543" lengthAdjust="spacingAndGlyphs"
text-anchor="middle" opacity="0">1</text>
<g class="stroked-text"><desc>1</desc>
<path d="M22392 45876
L22107 45876
" />
<path d="M22250 45876
L22250 45376
L22202 45447
L22154 45495
L22107 45519
" />
</g><text x="21250.000000" y="42763.346457"
textLength="1893.346457" font-size="666.653543" lengthAdjust="spacingAndGlyphs"
text-anchor="middle" opacity="0">TP13</text>
<g class="stroked-text"><desc>TP13</desc>
<path d="M20380 42239
L20666 42239
" />
<path d="M20523 42739
L20523 42239
" />
<path d="M20833 42739
L20833 42239
L21023 42239
L21071 42263
L21095 42287
L21119 42334
L21119 42406
L21095 42453
L21071 42477
L21023 42501
L20833 42501
" />
<path d="M21595 42739
L21309 42739
" />
<path d="M21452 42739
L21452 42239
L21404 42310
L21357 42358
L21309 42382
" />
<path d="M21761 42239
L22071 42239
L21904 42430
L21976 42430
L22023 42453
L22047 42477
L22071 42525
L22071 42644
L22047 42691
L22023 42715
L21976 42739
L21833 42739
L21785 42715
L21761 42691
" />
</g><text x="21250.000000" y="43762.125984"
textLength="2393.346457" font-size="666.653543" lengthAdjust="spacingAndGlyphs"
text-anchor="middle" opacity="0">AOUT1</text>
<g class="stroked-text"><desc>AOUT1</desc>
<path d="M20178 43595
L20416 43595
" />
<path d="M20130 43738
L20297 43238
L20464 43738
" />
<path d="M20726 43238
L20821 43238
L20869 43262
L20916 43309
L20940 43404
L20940 43571
L20916 43666
L20869 43714
L20821 43738
L20726 43738
L20678 43714
L20630 43666
L20607 43571
L20607 43404
L20630 43309
L20678 43262
L20726 43238
" />
<path d="M21154 43238
L21154 43643
L21178 43690
L21202 43714
L21250 43738
L21345 43738
L21392 43714
L21416 43690
L21440 43643
L21440 43238
" />
<path d="M21607 43238
L21892 43238
" />
<path d="M21750 43738
L21750 43238
" />
<path d="M22321 43738
L22035 43738
" />
<path d="M22178 43738
L22178 43238
L22130 43309
L22083 43357
L22035 43381
" />
</g><path d="M21500 44000
L23000 44000
" />
<text x="22250.000000" y="43900.000000"
textLength="536.181102" font-size="666.653543" lengthAdjust="spacingAndGlyphs"
text-anchor="middle" opacity="0">1</text>
<g class="stroked-text"><desc>1</desc>
<path d="M22392 43876
L22107 43876
" />
<path d="M22250 43876
L22250 43376
L22202 43447
L22154 43495
L22107 43519
" />
</g><text x="21250.000000" y="34763.346457"
textLength="1417.125984" font-size="666.653543" lengthAdjust="spacingAndGlyphs"
text-anchor="middle" opacity="0">TP9</text>
<g class="stroked-text"><desc>TP9</desc>
<path d="M20619 34239
L20904 34239
" />
<path d="M20761 34739
L20761 34239
" />
<path d="M21071 34739
L21071 34239
L21261 34239
L21309 34263
L21333 34287
L21357 34334
L21357 34406
L21333 34453
L21309 34477
L21261 34501
L21071 34501
" />
<path d="M21595 34739
L21690 34739
L21738 34715
L21761 34691
L21809 34620
L21833 34525
L21833 34334
L21809 34287
L21785 34263
L21738 34239
L21642 34239
L21595 34263
L21571 34287
L21547 34334
L21547 34453
L21571 34501
L21595 34525
L21642 34549
L21738 34549
L21785 34525
L21809 34501
L21833 34453
" />
</g><text x="21250.000000" y="35762.125984"
textLength="1536.181102" font-size="666.653543" lengthAdjust="spacingAndGlyphs"
text-anchor="middle" opacity="0">TX-</text>
<g class="stroked-text"><desc>TX-</desc>
<path d="M20559 35238
L20845 35238
" />
<path d="M20702 35738
L20702 35238
" />
<path d="M20964 35238
L21297 35738
" />
<path d="M21297 35238
L20964 35738
" />
<path d="M21488 35547
L21869 35547
" />
</g><path d="M21500 36000
L23000 36000
" />
<text x="22250.000000" y="35900.000000"
textLength="536.181102" font-size="666.653543" lengthAdjust="spacingAndGlyphs"
text-anchor="middle" opacity="0">1</text>
<g class="stroked-text"><desc>1</desc>
<path d="M22392 35876
L22107 35876
" />
<path d="M22250 35876
L22250 35376
L22202 35447
L22154 35495
L22107 35519
" />
</g><text x="21250.000000" y="36763.346457"
textLength="1893.346457" font-size="666.653543" lengthAdjust="spacingAndGlyphs"
text-anchor="middle" opacity="0">TP10</text>
<g class="stroked-text"><desc>TP10</desc>
<path d="M20380 36239
L20666 36239
" />
<path d="M20523 36739
L20523 36239
" />
<path d="M20833 36739
L20833 36239
L21023 36239
L21071 36263
L21095 36287
L21119 36334
L21119 36406
L21095 36453
L21071 36477
L21023 36501
L20833 36501
" />
<path d="M21595 36739
L21309 36739
" />
<path d="M21452 36739
L21452 36239
L21404 36310
L21357 36358
L21309 36382
" />
<path d="M21904 36239
L21952 36239
L22000 36263
L22023 36287
L22047 36334
L22071 36430
L22071 36549
L22047 36644
L22023 36691
L22000 36715
L21952 36739
L21904 36739
L21857 36715
L21833 36691
L21809 36644
L21785 36549
L21785 36430
L21809 36334
L21833 36287
L21857 36263
L21904 36239
" />
</g><text x="21250.000000" y="37762.125984"
textLength="1679.055118" font-size="666.653543" lengthAdjust="spacingAndGlyphs"
text-anchor="middle" opacity="0">MW0</text>
<g class="stroked-text"><desc>MW0</desc>
<path d="M20559 37738
L20559 37238
L20726 37595
L20892 37238
L20892 37738
" />
<path d="M21083 37238
L21202 37738
L21297 37381
L21392 37738
L21511 37238
" />
<path d="M21797 37238
L21845 37238
L21892 37262
L21916 37285
L21940 37333
L21964 37428
L21964 37547
L21940 37643
L21916 37690
L21892 37714
L21845 37738
L21797 37738
L21750 37714
L21726 37690
L21702 37643
L21678 37547
L21678 37428
L21702 37333
L21726 37285
L21750 37262
L21797 37238
" />
</g><path d="M21500 38000
L23000 38000
" />
<text x="22250.000000" y="37900.000000"
textLength="536.181102" font-size="666.653543" lengthAdjust="spacingAndGlyphs"
text-anchor="middle" opacity="0">1</text>
<g class="stroked-text"><desc>1</desc>
<path d="M22392 37876
L22107 37876
" />
<path d="M22250 37876
L22250 37376
L22202 37447
L22154 37495
L22107 37519
" />
</g><text x="21250.000000" y="38763.346457"
textLength="1893.346457" font-size="666.653543" lengthAdjust="spacingAndGlyphs"
text-anchor="middle" opacity="0">TP11</text>
<g class="stroked-text"><desc>TP11</desc>
<path d="M20380 38239
L20666 38239
" />
<path d="M20523 38739
L20523 38239
" />
<path d="M20833 38739
L20833 38239
L21023 38239
L21071 38263
L21095 38287
L21119 38334
L21119 38406
L21095 38453
L21071 38477
L21023 38501
L20833 38501
" />
<path d="M21595 38739
L21309 38739
" />
<path d="M21452 38739
L21452 38239
L21404 38310
L21357 38358
L21309 38382
" />
<path d="M22071 38739
L21785 38739
" />
<path d="M21928 38739
L21928 38239
L21880 38310
L21833 38358
L21785 38382
" />
</g><text x="21250.000000" y="39762.125984"
textLength="1679.055118" font-size="666.653543" lengthAdjust="spacingAndGlyphs"
text-anchor="middle" opacity="0">MW1</text>
<g class="stroked-text"><desc>MW1</desc>
<path d="M20559 39738
L20559 39238
L20726 39595
L20892 39238
L20892 39738
" />
<path d="M21083 39238
L21202 39738
L21297 39381
L21392 39738
L21511 39238
" />
<path d="M21964 39738
L21678 39738
" />
<path d="M21821 39738
L21821 39238
L21773 39309
L21726 39357
L21678 39381
" />
</g><path d="M21500 40000
L23000 40000
" />
<text x="22250.000000" y="39900.000000"
textLength="536.181102" font-size="666.653543" lengthAdjust="spacingAndGlyphs"
text-anchor="middle" opacity="0">1</text>
<g class="stroked-text"><desc>1</desc>
<path d="M22392 39876
L22107 39876
" />
<path d="M22250 39876
L22250 39376
L22202 39447
L22154 39495
L22107 39519
" />
</g><text x="21250.000000" y="32763.346457"
textLength="1417.125984" font-size="666.653543" lengthAdjust="spacingAndGlyphs"
text-anchor="middle" opacity="0">TP8</text>
<g class="stroked-text"><desc>TP8</desc>
<path d="M20619 32239
L20904 32239
" />
<path d="M20761 32739
L20761 32239
" />
<path d="M21071 32739
L21071 32239
L21261 32239
L21309 32263
L21333 32287
L21357 32334
L21357 32406
L21333 32453
L21309 32477
L21261 32501
L21071 32501
" />
<path d="M21642 32453
L21595 32430
L21571 32406
L21547 32358
L21547 32334
L21571 32287
L21595 32263
L21642 32239
L21738 32239
L21785 32263
L21809 32287
L21833 32334
L21833 32358
L21809 32406
L21785 32430
L21738 32453
L21642 32453
L21595 32477
L21571 32501
L21547 32549
L21547 32644
L21571 32691
L21595 32715
L21642 32739
L21738 32739
L21785 32715
L21809 32691
L21833 32644
L21833 32549
L21809 32501
L21785 32477
L21738 32453
" />
</g><text x="21250.000000" y="33762.125984"
textLength="1536.181102" font-size="666.653543" lengthAdjust="spacingAndGlyphs"
text-anchor="middle" opacity="0">TX+</text>
<g class="stroked-text"><desc>TX+</desc>
<path d="M20559 33238
L20845 33238
" />
<path d="M20702 33738
L20702 33238
" />
<path d="M20964 33238
L21297 33738
" />
<path d="M21297 33238
L20964 33738
" />
<path d="M21488 33547
L21869 33547
" />
<path d="M21678 33738
L21678 33357
" />
</g><path d="M21500 34000
L23000 34000
" />
<text x="22250.000000" y="33900.000000"
textLength="536.181102" font-size="666.653543" lengthAdjust="spacingAndGlyphs"
text-anchor="middle" opacity="0">1</text>
<g class="stroked-text"><desc>1</desc>
<path d="M22392 33876
L22107 33876
" />
<path d="M22250 33876
L22250 33376
L22202 33447
L22154 33495
L22107 33519
" />
</g></g>
<g style="fill:#000000; fill-opacity:1.0; 
stroke:#000000; stroke-width:60.000000; stroke-opacity:1; 
stroke-linecap:round; stroke-linejoin:round;">
<circle cx="32000.000000" cy="44000.000000" r="180.000000" /> 
<circle cx="32000.000000" cy="40000.000000" r="180.000000" /> 
<circle cx="32000.000000" cy="42000.000000" r="180.000000" /> 
<circle cx="32000.000000" cy="36000.000000" r="180.000000" /> 
<circle cx="32000.000000" cy="38000.000000" r="180.000000" /> 
<circle cx="32000.000000" cy="31000.000000" r="180.000000" /> 
<circle cx="24000.000000" cy="48000.000000" r="180.000000" /> 
<circle cx="24000.000000" cy="50250.000000" r="180.000000" /> 
<circle cx="15500.000000" cy="35500.000000" r="180.000000" /> 
<circle cx="15500.000000" cy="28500.000000" r="180.000000" /> 
<circle cx="15500.000000" cy="32000.000000" r="180.000000" /> 
</g> 
</svg>
